<?xml version="1.0"?>
<svg width="538" height="532" viewBox="0 0 538 532" fill="none" xmlns="http://www.w3.org/2000/svg"> <rect x="98" y="3" width="341" height="101" rx="7" stroke="#F1FDFF" stroke-width="6"></rect> <path d="M209.436 71.254H209.634L212.46 64H214.026L210.228 73H208.644L204.774 64H206.43L209.436 71.254ZM216.737 64.702C217.253 64.402 217.835 64.186 218.483 64.054C219.131 63.922 219.767 63.856 220.391 63.856C221.003 63.856 221.501 63.952 221.885 64.144C222.281 64.336 222.587 64.588 222.803 64.9C223.031 65.2 223.181 65.548 223.253 65.944C223.337 66.328 223.379 66.718 223.379 67.114C223.379 67.57 223.367 68.056 223.343 68.572C223.319 69.088 223.301 69.604 223.289 70.12C223.289 70.72 223.325 71.29 223.397 71.83H224.603V73H222.209L222.047 71.65H221.957C221.885 71.758 221.777 71.896 221.633 72.064C221.489 72.232 221.297 72.4 221.057 72.568C220.829 72.724 220.547 72.862 220.211 72.982C219.875 73.102 219.479 73.162 219.023 73.162C218.135 73.162 217.433 72.934 216.917 72.478C216.401 72.022 216.143 71.398 216.143 70.606C216.143 69.994 216.275 69.484 216.539 69.076C216.815 68.668 217.205 68.356 217.709 68.14C218.213 67.924 218.819 67.798 219.527 67.762C220.247 67.726 221.051 67.774 221.939 67.906C221.999 67.354 222.005 66.898 221.957 66.538C221.921 66.166 221.825 65.872 221.669 65.656C221.525 65.44 221.315 65.29 221.039 65.206C220.775 65.11 220.445 65.062 220.049 65.062C219.509 65.062 218.993 65.14 218.501 65.296C218.009 65.44 217.571 65.59 217.187 65.746L216.737 64.702ZM219.383 71.956C219.719 71.956 220.031 71.902 220.319 71.794C220.607 71.686 220.859 71.548 221.075 71.38C221.291 71.212 221.471 71.032 221.615 70.84C221.759 70.636 221.867 70.444 221.939 70.264V69.004C221.315 68.896 220.739 68.842 220.211 68.842C219.683 68.842 219.227 68.902 218.843 69.022C218.459 69.13 218.159 69.304 217.943 69.544C217.727 69.784 217.619 70.096 217.619 70.48C217.619 70.876 217.751 71.224 218.015 71.524C218.291 71.812 218.747 71.956 219.383 71.956ZM226.774 73V71.794H229.204V65.206H226.774V64H230.14L230.428 65.17H230.518C230.926 64.798 231.382 64.48 231.886 64.216C232.39 63.952 232.99 63.82 233.686 63.82C234.094 63.82 234.418 63.898 234.658 64.054C234.91 64.21 235.102 64.438 235.234 64.738C235.378 65.038 235.474 65.404 235.522 65.836C235.57 66.256 235.594 66.736 235.594 67.276L234.334 67.294C234.334 66.526 234.256 65.962 234.1 65.602C233.956 65.242 233.686 65.062 233.29 65.062C232.918 65.062 232.582 65.116 232.282 65.224C231.982 65.332 231.718 65.464 231.49 65.62C231.274 65.776 231.088 65.932 230.932 66.088C230.776 66.244 230.662 66.376 230.59 66.484V71.794H234.046V73H226.774ZM248.756 73V71.794H250.898V65.206H248.756V64H250.898V63.496C250.898 62.368 251.192 61.552 251.78 61.048C252.368 60.544 253.208 60.292 254.3 60.292C254.696 60.292 255.05 60.316 255.362 60.364C255.674 60.412 256.01 60.508 256.37 60.652L256.046 61.822C255.734 61.69 255.434 61.606 255.146 61.57C254.858 61.522 254.594 61.498 254.354 61.498C253.562 61.498 253.022 61.696 252.734 62.092C252.446 62.476 252.302 63.112 252.302 64H256.028V65.206H252.302V71.794H256.028V73H248.756ZM258.991 68.5C258.991 67.048 259.369 65.902 260.125 65.062C260.881 64.21 261.961 63.784 263.365 63.784C264.121 63.784 264.769 63.91 265.309 64.162C265.861 64.402 266.317 64.732 266.677 65.152C267.037 65.572 267.301 66.07 267.469 66.646C267.649 67.222 267.739 67.84 267.739 68.5C267.739 69.22 267.643 69.874 267.451 70.462C267.259 71.038 266.977 71.53 266.605 71.938C266.233 72.346 265.771 72.664 265.219 72.892C264.679 73.108 264.061 73.216 263.365 73.216C262.621 73.216 261.973 73.096 261.421 72.856C260.869 72.604 260.413 72.268 260.053 71.848C259.693 71.428 259.423 70.93 259.243 70.354C259.075 69.778 258.991 69.16 258.991 68.5ZM260.485 68.5C260.485 68.92 260.533 69.34 260.629 69.76C260.737 70.18 260.905 70.558 261.133 70.894C261.361 71.23 261.655 71.5 262.015 71.704C262.387 71.908 262.837 72.01 263.365 72.01C264.325 72.01 265.045 71.716 265.525 71.128C266.017 70.528 266.263 69.652 266.263 68.5C266.263 68.068 266.209 67.648 266.101 67.24C266.005 66.82 265.837 66.442 265.597 66.106C265.369 65.77 265.069 65.5 264.697 65.296C264.337 65.092 263.893 64.99 263.365 64.99C262.405 64.99 261.685 65.284 261.205 65.872C260.725 66.46 260.485 67.336 260.485 68.5ZM269.784 68.5C269.784 67.048 270.162 65.902 270.918 65.062C271.674 64.21 272.754 63.784 274.158 63.784C274.914 63.784 275.562 63.91 276.102 64.162C276.654 64.402 277.11 64.732 277.47 65.152C277.83 65.572 278.094 66.07 278.262 66.646C278.442 67.222 278.532 67.84 278.532 68.5C278.532 69.22 278.436 69.874 278.244 70.462C278.052 71.038 277.77 71.53 277.398 71.938C277.026 72.346 276.564 72.664 276.012 72.892C275.472 73.108 274.854 73.216 274.158 73.216C273.414 73.216 272.766 73.096 272.214 72.856C271.662 72.604 271.206 72.268 270.846 71.848C270.486 71.428 270.216 70.93 270.036 70.354C269.868 69.778 269.784 69.16 269.784 68.5ZM271.278 68.5C271.278 68.92 271.326 69.34 271.422 69.76C271.53 70.18 271.698 70.558 271.926 70.894C272.154 71.23 272.448 71.5 272.808 71.704C273.18 71.908 273.63 72.01 274.158 72.01C275.118 72.01 275.838 71.716 276.318 71.128C276.81 70.528 277.056 69.652 277.056 68.5C277.056 68.068 277.002 67.648 276.894 67.24C276.798 66.82 276.63 66.442 276.39 66.106C276.162 65.77 275.862 65.5 275.49 65.296C275.13 65.092 274.686 64.99 274.158 64.99C273.198 64.99 272.478 65.284 271.998 65.872C271.518 66.46 271.278 67.336 271.278 68.5ZM291.568 64.774H299.92V66.07H291.568V64.774ZM291.568 67.726H299.92V69.022H291.568V67.726ZM314.216 71.704H317.042V62.236L314.162 64.252L313.46 63.226L317.42 60.4H318.428V71.704H321.2V73H314.216V71.704ZM323.713 66.7C323.713 65.68 323.803 64.768 323.983 63.964C324.163 63.148 324.433 62.464 324.793 61.912C325.153 61.348 325.609 60.922 326.161 60.634C326.713 60.334 327.367 60.184 328.123 60.184C328.927 60.184 329.605 60.328 330.157 60.616C330.721 60.904 331.177 61.324 331.525 61.876C331.873 62.428 332.125 63.112 332.281 63.928C332.437 64.732 332.515 65.656 332.515 66.7C332.515 67.72 332.425 68.638 332.245 69.454C332.065 70.258 331.795 70.942 331.435 71.506C331.075 72.058 330.619 72.484 330.067 72.784C329.515 73.072 328.861 73.216 328.105 73.216C327.313 73.216 326.635 73.06 326.071 72.748C325.519 72.424 325.063 71.974 324.703 71.398C324.355 70.822 324.103 70.138 323.947 69.346C323.791 68.542 323.713 67.66 323.713 66.7ZM331.039 66.7C331.039 66.064 331.003 65.458 330.931 64.882L325.585 69.76C325.789 70.444 326.095 70.99 326.503 71.398C326.911 71.806 327.445 72.01 328.105 72.01C329.161 72.01 329.911 71.572 330.355 70.696C330.811 69.82 331.039 68.488 331.039 66.7ZM325.207 66.7C325.207 67 325.213 67.288 325.225 67.564C325.249 67.84 325.273 68.11 325.297 68.374L330.661 63.514C330.457 62.866 330.151 62.35 329.743 61.966C329.347 61.582 328.807 61.39 328.123 61.39C327.055 61.39 326.299 61.834 325.855 62.722C325.423 63.598 325.207 64.924 325.207 66.7Z" fill="#FFF0DA"></path> <path d="M139.344 46.512H139.464L142.776 34.2H146.184L141.144 51H137.4L132.216 34.2H135.888L139.344 46.512ZM148.551 39.816C149.191 39.528 149.927 39.28 150.759 39.072C151.607 38.864 152.607 38.76 153.759 38.76C154.591 38.76 155.295 38.864 155.871 39.072C156.463 39.264 156.935 39.544 157.287 39.912C157.655 40.28 157.919 40.72 158.079 41.232C158.239 41.744 158.319 42.32 158.319 42.96C158.319 43.776 158.287 44.472 158.223 45.048C158.175 45.624 158.151 46.136 158.151 46.584C158.151 46.92 158.167 47.296 158.199 47.712C158.231 47.936 158.255 48.152 158.271 48.36H159.831V51H155.847L155.535 49.368H155.415C155.095 49.864 154.639 50.296 154.047 50.664C153.455 51.016 152.655 51.192 151.647 51.192C150.447 51.192 149.495 50.872 148.791 50.232C148.087 49.592 147.735 48.744 147.735 47.688C147.735 47.016 147.855 46.44 148.095 45.96C148.351 45.464 148.711 45.064 149.175 44.76C149.655 44.44 150.223 44.208 150.879 44.064C151.551 43.904 152.295 43.824 153.111 43.824C153.399 43.824 153.703 43.84 154.023 43.872C154.343 43.904 154.735 43.936 155.199 43.968C155.231 43.808 155.247 43.648 155.247 43.488V43.032C155.247 42.424 155.071 41.992 154.719 41.736C154.367 41.464 153.847 41.328 153.159 41.328C152.343 41.328 151.607 41.432 150.951 41.64C150.295 41.848 149.743 42.056 149.295 42.264L148.551 39.816ZM152.655 48.624C153.423 48.624 153.999 48.488 154.383 48.216C154.767 47.928 155.047 47.624 155.223 47.304V45.864C155.063 45.832 154.823 45.8 154.503 45.768C154.183 45.72 153.839 45.696 153.471 45.696C153.167 45.696 152.863 45.728 152.559 45.792C152.255 45.84 151.983 45.928 151.743 46.056C151.503 46.168 151.311 46.32 151.167 46.512C151.023 46.704 150.951 46.936 150.951 47.208C150.951 47.656 151.079 48.008 151.335 48.264C151.607 48.504 152.047 48.624 152.655 48.624ZM161.717 48.36H164.693V41.64H161.717V39H167.117L167.477 40.584H167.573C168.021 40.056 168.533 39.616 169.109 39.264C169.685 38.912 170.357 38.736 171.125 38.736C172.085 38.736 172.837 39.088 173.381 39.792C173.941 40.496 174.221 41.672 174.221 43.32H171.413C171.413 42.744 171.325 42.328 171.149 42.072C170.989 41.8 170.725 41.664 170.357 41.664C169.717 41.664 169.197 41.824 168.797 42.144C168.413 42.464 168.085 42.832 167.813 43.248V48.36H173.021V51H161.717V48.36ZM176.588 48.36H180.812V41.64H176.588V39H183.932V48.36H188.372V51H176.588V48.36ZM180.236 35.736C180.236 35.24 180.42 34.816 180.788 34.464C181.156 34.112 181.668 33.936 182.324 33.936C182.996 33.936 183.532 34.112 183.932 34.464C184.332 34.816 184.532 35.24 184.532 35.736C184.532 36.248 184.332 36.672 183.932 37.008C183.532 37.328 182.996 37.488 182.324 37.488C181.668 37.488 181.156 37.328 180.788 37.008C180.42 36.672 180.236 36.248 180.236 35.736ZM191.723 39.816C192.363 39.528 193.099 39.28 193.931 39.072C194.779 38.864 195.779 38.76 196.931 38.76C197.763 38.76 198.467 38.864 199.043 39.072C199.635 39.264 200.107 39.544 200.459 39.912C200.827 40.28 201.091 40.72 201.251 41.232C201.411 41.744 201.491 42.32 201.491 42.96C201.491 43.776 201.459 44.472 201.395 45.048C201.347 45.624 201.323 46.136 201.323 46.584C201.323 46.92 201.339 47.296 201.371 47.712C201.403 47.936 201.427 48.152 201.443 48.36H203.003V51H199.019L198.707 49.368H198.587C198.267 49.864 197.811 50.296 197.219 50.664C196.627 51.016 195.827 51.192 194.819 51.192C193.619 51.192 192.667 50.872 191.963 50.232C191.259 49.592 190.907 48.744 190.907 47.688C190.907 47.016 191.027 46.44 191.267 45.96C191.523 45.464 191.883 45.064 192.347 44.76C192.827 44.44 193.395 44.208 194.051 44.064C194.723 43.904 195.467 43.824 196.283 43.824C196.571 43.824 196.875 43.84 197.195 43.872C197.515 43.904 197.907 43.936 198.371 43.968C198.403 43.808 198.419 43.648 198.419 43.488V43.032C198.419 42.424 198.243 41.992 197.891 41.736C197.539 41.464 197.019 41.328 196.331 41.328C195.515 41.328 194.779 41.432 194.123 41.64C193.467 41.848 192.915 42.056 192.467 42.264L191.723 39.816ZM195.827 48.624C196.595 48.624 197.171 48.488 197.555 48.216C197.939 47.928 198.219 47.624 198.395 47.304V45.864C198.235 45.832 197.995 45.8 197.675 45.768C197.355 45.72 197.011 45.696 196.643 45.696C196.339 45.696 196.035 45.728 195.73 45.792C195.427 45.84 195.155 45.928 194.915 46.056C194.675 46.168 194.483 46.32 194.339 46.512C194.195 46.704 194.123 46.936 194.123 47.208C194.123 47.656 194.251 48.008 194.507 48.264C194.779 48.504 195.219 48.624 195.827 48.624ZM203.641 34.2H208.609V39.96H208.705C209.041 39.576 209.489 39.272 210.049 39.048C210.625 38.824 211.329 38.712 212.161 38.712C213.745 38.712 215.009 39.208 215.953 40.2C216.913 41.192 217.393 42.688 217.393 44.688C217.393 45.76 217.233 46.712 216.913 47.544C216.593 48.36 216.137 49.048 215.545 49.608C214.969 50.152 214.257 50.568 213.409 50.856C212.577 51.144 211.633 51.288 210.577 51.288C209.329 51.288 208.281 51.144 207.433 50.856C206.601 50.568 205.953 50.28 205.489 49.992V36.84H203.641V34.2ZM211.297 41.352C211.073 41.352 210.825 41.392 210.553 41.472C210.281 41.552 210.017 41.664 209.761 41.808C209.521 41.952 209.289 42.136 209.065 42.36C208.857 42.568 208.705 42.808 208.609 43.08V48.072C208.865 48.2 209.217 48.328 209.665 48.456C210.113 48.584 210.593 48.648 211.105 48.648C211.521 48.648 211.913 48.576 212.281 48.432C212.665 48.272 212.993 48.032 213.265 47.712C213.553 47.392 213.777 46.992 213.937 46.512C214.097 46.032 214.177 45.456 214.177 44.784C214.177 43.648 213.929 42.792 213.433 42.216C212.953 41.64 212.241 41.352 211.297 41.352ZM220.432 34.2H225.544V45.288C225.544 46.52 225.696 47.376 226 47.856C226.304 48.336 226.792 48.576 227.464 48.576C227.96 48.576 228.368 48.528 228.688 48.432C229.008 48.32 229.328 48.168 229.648 47.976L230.824 50.136C230.552 50.312 230.28 50.48 230.008 50.64C229.736 50.784 229.448 50.904 229.144 51C228.84 51.112 228.504 51.192 228.136 51.24C227.784 51.304 227.384 51.336 226.936 51.336C225.432 51.336 224.304 50.952 223.552 50.184C222.8 49.416 222.424 48.328 222.424 46.92V36.84H220.432V34.2ZM245.55 49.728C245.342 49.92 245.07 50.112 244.734 50.304C244.414 50.48 244.03 50.648 243.582 50.808C243.15 50.968 242.67 51.096 242.142 51.192C241.614 51.288 241.054 51.336 240.462 51.336C239.438 51.336 238.518 51.192 237.702 50.904C236.902 50.616 236.222 50.2 235.662 49.656C235.102 49.096 234.67 48.432 234.366 47.664C234.078 46.88 233.934 45.992 233.934 45C233.934 43.944 234.102 43.024 234.438 42.24C234.774 41.44 235.23 40.776 235.806 40.248C236.398 39.72 237.086 39.328 237.87 39.072C238.654 38.8 239.502 38.664 240.414 38.664C241.022 38.664 241.646 38.744 242.286 38.904C242.942 39.064 243.542 39.344 244.086 39.744C244.63 40.128 245.07 40.648 245.406 41.304C245.758 41.96 245.934 42.792 245.934 43.8C245.934 44.488 245.854 45.232 245.694 46.032H237.054C237.07 46.544 237.174 46.976 237.366 47.328C237.574 47.68 237.838 47.968 238.158 48.192C238.494 48.416 238.87 48.584 239.286 48.696C239.718 48.792 240.174 48.84 240.654 48.84C241.614 48.84 242.398 48.728 243.006 48.504C243.63 48.28 244.134 48.008 244.518 47.688L245.55 49.728ZM240.366 41.16C239.95 41.16 239.558 41.216 239.19 41.328C238.822 41.44 238.486 41.608 238.182 41.832C237.894 42.04 237.654 42.304 237.462 42.624C237.27 42.944 237.158 43.304 237.126 43.704H243.03C243.03 42.92 242.806 42.304 242.358 41.856C241.926 41.392 241.262 41.16 240.366 41.16ZM248.325 34.2C248.469 34.184 248.717 34.16 249.069 34.128C249.437 34.096 249.845 34.072 250.293 34.056C250.757 34.024 251.229 34 251.709 33.984C252.205 33.968 252.645 33.96 253.029 33.96C254.517 33.96 255.749 34.176 256.725 34.608C257.701 35.04 258.469 35.64 259.029 36.408C259.605 37.16 260.005 38.056 260.229 39.096C260.453 40.12 260.565 41.24 260.565 42.456C260.565 43.56 260.453 44.64 260.229 45.696C260.005 46.752 259.597 47.696 259.005 48.528C258.429 49.344 257.621 50.008 256.581 50.52C255.557 51.016 254.237 51.264 252.621 51.264C252.365 51.264 252.037 51.256 251.637 51.24C251.237 51.224 250.829 51.2 250.413 51.168C249.997 51.152 249.597 51.128 249.213 51.096C248.829 51.08 248.533 51.056 248.325 51.024V34.2ZM253.149 36.888C252.845 36.888 252.549 36.904 252.261 36.936C251.973 36.952 251.757 36.968 251.613 36.984V48.24C251.677 48.256 251.773 48.272 251.901 48.288C252.029 48.288 252.157 48.296 252.285 48.312C252.429 48.312 252.565 48.32 252.693 48.336C252.821 48.336 252.925 48.336 253.005 48.336C253.933 48.336 254.669 48.168 255.213 47.832C255.773 47.48 256.189 47.024 256.461 46.464C256.733 45.904 256.909 45.272 256.989 44.568C257.069 43.864 257.109 43.16 257.109 42.456C257.109 41.848 257.069 41.216 256.989 40.56C256.925 39.904 256.757 39.304 256.485 38.76C256.229 38.216 255.837 37.768 255.309 37.416C254.781 37.064 254.061 36.888 253.149 36.888ZM274.332 49.728C274.124 49.92 273.852 50.112 273.516 50.304C273.196 50.48 272.812 50.648 272.364 50.808C271.932 50.968 271.452 51.096 270.924 51.192C270.396 51.288 269.836 51.336 269.244 51.336C268.22 51.336 267.3 51.192 266.484 50.904C265.684 50.616 265.004 50.2 264.444 49.656C263.884 49.096 263.452 48.432 263.148 47.664C262.86 46.88 262.716 45.992 262.716 45C262.716 43.944 262.884 43.024 263.22 42.24C263.556 41.44 264.012 40.776 264.588 40.248C265.18 39.72 265.868 39.328 266.652 39.072C267.436 38.8 268.284 38.664 269.196 38.664C269.804 38.664 270.428 38.744 271.068 38.904C271.724 39.064 272.324 39.344 272.868 39.744C273.412 40.128 273.852 40.648 274.188 41.304C274.54 41.96 274.716 42.792 274.716 43.8C274.716 44.488 274.636 45.232 274.476 46.032H265.836C265.852 46.544 265.956 46.976 266.148 47.328C266.356 47.68 266.62 47.968 266.94 48.192C267.276 48.416 267.652 48.584 268.068 48.696C268.5 48.792 268.956 48.84 269.436 48.84C270.396 48.84 271.18 48.728 271.788 48.504C272.412 48.28 272.916 48.008 273.3 47.688L274.332 49.728ZM269.148 41.16C268.732 41.16 268.34 41.216 267.972 41.328C267.604 41.44 267.268 41.608 266.964 41.832C266.676 42.04 266.436 42.304 266.244 42.624C266.052 42.944 265.94 43.304 265.908 43.704H271.812C271.812 42.92 271.588 42.304 271.14 41.856C270.708 41.392 270.044 41.16 269.148 41.16ZM289.01 49.848C288.354 50.344 287.586 50.72 286.706 50.976C285.826 51.216 284.906 51.336 283.946 51.336C282.906 51.336 281.978 51.184 281.162 50.88C280.362 50.576 279.682 50.152 279.122 49.608C278.578 49.048 278.162 48.376 277.874 47.592C277.586 46.808 277.442 45.944 277.442 45C277.442 43.992 277.61 43.096 277.946 42.312C278.282 41.528 278.746 40.864 279.338 40.32C279.946 39.776 280.658 39.368 281.474 39.096C282.29 38.808 283.178 38.664 284.138 38.664C285.034 38.664 285.874 38.768 286.658 38.976C287.442 39.184 288.042 39.384 288.458 39.576V43.8H285.818V41.592C285.322 41.48 284.826 41.424 284.33 41.424C283.882 41.424 283.434 41.496 282.986 41.64C282.554 41.768 282.162 41.984 281.81 42.288C281.474 42.576 281.194 42.944 280.97 43.392C280.762 43.84 280.658 44.376 280.658 45C280.658 45.512 280.746 45.984 280.922 46.416C281.098 46.848 281.346 47.224 281.666 47.544C281.986 47.864 282.378 48.12 282.842 48.312C283.322 48.488 283.85 48.576 284.426 48.576C285.338 48.576 286.082 48.448 286.658 48.192C287.25 47.936 287.69 47.712 287.978 47.52L289.01 49.848ZM292.385 34.2H297.497V45.288C297.497 46.52 297.649 47.376 297.953 47.856C298.257 48.336 298.745 48.576 299.417 48.576C299.913 48.576 300.321 48.528 300.641 48.432C300.961 48.32 301.281 48.168 301.601 47.976L302.777 50.136C302.505 50.312 302.233 50.48 301.961 50.64C301.689 50.784 301.401 50.904 301.097 51C300.793 51.112 300.457 51.192 300.089 51.24C299.737 51.304 299.337 51.336 298.889 51.336C297.385 51.336 296.257 50.952 295.505 50.184C294.753 49.416 294.377 48.328 294.377 46.92V36.84H292.385V34.2ZM306.848 39.816C307.488 39.528 308.224 39.28 309.056 39.072C309.904 38.864 310.904 38.76 312.056 38.76C312.888 38.76 313.592 38.864 314.168 39.072C314.76 39.264 315.232 39.544 315.584 39.912C315.952 40.28 316.216 40.72 316.376 41.232C316.536 41.744 316.616 42.32 316.616 42.96C316.616 43.776 316.584 44.472 316.52 45.048C316.472 45.624 316.448 46.136 316.448 46.584C316.448 46.92 316.464 47.296 316.496 47.712C316.528 47.936 316.552 48.152 316.568 48.36H318.128V51H314.144L313.832 49.368H313.712C313.392 49.864 312.936 50.296 312.344 50.664C311.752 51.016 310.952 51.192 309.944 51.192C308.744 51.192 307.792 50.872 307.088 50.232C306.384 49.592 306.032 48.744 306.032 47.688C306.032 47.016 306.152 46.44 306.392 45.96C306.648 45.464 307.008 45.064 307.472 44.76C307.952 44.44 308.52 44.208 309.176 44.064C309.848 43.904 310.592 43.824 311.408 43.824C311.696 43.824 312 43.84 312.32 43.872C312.64 43.904 313.032 43.936 313.496 43.968C313.528 43.808 313.544 43.648 313.544 43.488V43.032C313.544 42.424 313.368 41.992 313.016 41.736C312.664 41.464 312.144 41.328 311.456 41.328C310.64 41.328 309.904 41.432 309.248 41.64C308.592 41.848 308.04 42.056 307.592 42.264L306.848 39.816ZM310.952 48.624C311.72 48.624 312.296 48.488 312.68 48.216C313.064 47.928 313.344 47.624 313.52 47.304V45.864C313.36 45.832 313.12 45.8 312.8 45.768C312.48 45.72 312.136 45.696 311.768 45.696C311.464 45.696 311.16 45.728 310.855 45.792C310.552 45.84 310.28 45.928 310.04 46.056C309.8 46.168 309.608 46.32 309.464 46.512C309.32 46.704 309.248 46.936 309.248 47.208C309.248 47.656 309.376 48.008 309.632 48.264C309.904 48.504 310.344 48.624 310.952 48.624ZM320.014 48.36H322.99V41.64H320.014V39H325.414L325.774 40.584H325.87C326.318 40.056 326.83 39.616 327.406 39.264C327.982 38.912 328.654 38.736 329.422 38.736C330.382 38.736 331.134 39.088 331.678 39.792C332.238 40.496 332.518 41.672 332.518 43.32H329.71C329.71 42.744 329.622 42.328 329.446 42.072C329.286 41.8 329.022 41.664 328.654 41.664C328.014 41.664 327.494 41.824 327.094 42.144C326.71 42.464 326.382 42.832 326.11 43.248V48.36H331.318V51H320.014V48.36ZM335.629 39.816C336.269 39.528 337.005 39.28 337.837 39.072C338.685 38.864 339.685 38.76 340.837 38.76C341.669 38.76 342.373 38.864 342.949 39.072C343.541 39.264 344.013 39.544 344.365 39.912C344.733 40.28 344.997 40.72 345.157 41.232C345.317 41.744 345.397 42.32 345.397 42.96C345.397 43.776 345.365 44.472 345.301 45.048C345.253 45.624 345.229 46.136 345.229 46.584C345.229 46.92 345.245 47.296 345.277 47.712C345.309 47.936 345.333 48.152 345.349 48.36H346.909V51H342.925L342.613 49.368H342.493C342.173 49.864 341.717 50.296 341.125 50.664C340.533 51.016 339.733 51.192 338.725 51.192C337.525 51.192 336.573 50.872 335.869 50.232C335.165 49.592 334.813 48.744 334.813 47.688C334.813 47.016 334.933 46.44 335.173 45.96C335.429 45.464 335.789 45.064 336.253 44.76C336.733 44.44 337.301 44.208 337.957 44.064C338.629 43.904 339.373 43.824 340.189 43.824C340.477 43.824 340.781 43.84 341.101 43.872C341.421 43.904 341.813 43.936 342.277 43.968C342.309 43.808 342.325 43.648 342.325 43.488V43.032C342.325 42.424 342.149 41.992 341.797 41.736C341.445 41.464 340.925 41.328 340.237 41.328C339.421 41.328 338.685 41.432 338.029 41.64C337.373 41.848 336.821 42.056 336.373 42.264L335.629 39.816ZM339.733 48.624C340.501 48.624 341.077 48.488 341.461 48.216C341.845 47.928 342.125 47.624 342.301 47.304V45.864C342.141 45.832 341.901 45.8 341.581 45.768C341.261 45.72 340.917 45.696 340.549 45.696C340.245 45.696 339.941 45.728 339.637 45.792C339.333 45.84 339.061 45.928 338.821 46.056C338.581 46.168 338.389 46.32 338.245 46.512C338.101 46.704 338.029 46.936 338.029 47.208C338.029 47.656 338.157 48.008 338.413 48.264C338.685 48.504 339.125 48.624 339.733 48.624ZM350.643 41.64H348.267V39H350.643V36.264L353.763 35.376V39H360.051V41.64H353.763V45.072C353.763 46.304 353.995 47.2 354.459 47.76C354.923 48.304 355.571 48.576 356.403 48.576C356.835 48.576 357.227 48.528 357.579 48.432C357.931 48.32 358.243 48.184 358.515 48.024C358.803 47.864 359.059 47.688 359.283 47.496C359.523 47.304 359.739 47.128 359.931 46.968L361.371 49.128C361.099 49.448 360.755 49.744 360.339 50.016C359.939 50.272 359.499 50.504 359.019 50.712C358.555 50.904 358.067 51.056 357.555 51.168C357.043 51.28 356.539 51.336 356.043 51.336C354.251 51.336 352.899 50.84 351.987 49.848C351.091 48.84 350.643 47.248 350.643 45.072V41.64ZM363.666 48.36H367.89V41.64H363.666V39H371.01V48.36H375.45V51H363.666V48.36ZM367.314 35.736C367.314 35.24 367.498 34.816 367.866 34.464C368.234 34.112 368.746 33.936 369.402 33.936C370.074 33.936 370.61 34.112 371.01 34.464C371.41 34.816 371.61 35.24 371.61 35.736C371.61 36.248 371.41 36.672 371.01 37.008C370.61 37.328 370.074 37.488 369.402 37.488C368.746 37.488 368.234 37.328 367.866 37.008C367.498 36.672 367.314 36.248 367.314 35.736ZM377.481 45C377.481 43.992 377.633 43.096 377.937 42.312C378.241 41.528 378.673 40.864 379.233 40.32C379.793 39.776 380.457 39.368 381.225 39.096C382.009 38.808 382.881 38.664 383.841 38.664C384.849 38.664 385.745 38.816 386.529 39.12C387.329 39.424 388.001 39.856 388.545 40.416C389.089 40.96 389.497 41.624 389.769 42.408C390.057 43.192 390.201 44.056 390.201 45C390.201 46.008 390.049 46.904 389.745 47.688C389.441 48.472 389.009 49.136 388.449 49.68C387.889 50.224 387.217 50.64 386.433 50.928C385.665 51.2 384.801 51.336 383.841 51.336C382.833 51.336 381.929 51.184 381.129 50.88C380.345 50.576 379.681 50.152 379.137 49.608C378.593 49.048 378.177 48.376 377.889 47.592C377.617 46.808 377.481 45.944 377.481 45ZM380.697 45C380.697 45.528 380.769 46.016 380.913 46.464C381.057 46.912 381.265 47.304 381.537 47.64C381.809 47.976 382.137 48.24 382.521 48.432C382.905 48.608 383.345 48.696 383.841 48.696C384.769 48.696 385.521 48.4 386.097 47.808C386.689 47.216 386.985 46.28 386.985 45C386.985 43.896 386.713 43.008 386.169 42.336C385.625 41.648 384.849 41.304 383.841 41.304C383.393 41.304 382.977 41.376 382.593 41.52C382.209 41.648 381.873 41.864 381.585 42.168C381.313 42.472 381.097 42.856 380.937 43.32C380.777 43.784 380.697 44.344 380.697 45ZM391.319 39H395.519L395.879 40.584H395.975C396.343 40.072 396.871 39.624 397.559 39.24C398.247 38.856 399.071 38.664 400.031 38.664C400.623 38.664 401.175 38.744 401.687 38.904C402.215 39.064 402.663 39.328 403.031 39.696C403.399 40.064 403.687 40.568 403.895 41.208C404.119 41.832 404.231 42.608 404.231 43.536V51H401.111V44.184C401.111 43.208 400.887 42.504 400.439 42.072C400.007 41.64 399.455 41.424 398.783 41.424C398.191 41.424 397.647 41.6 397.151 41.952C396.671 42.288 396.343 42.712 396.167 43.224V51H393.047V41.64H391.319V39Z" fill="#EDD0FF"></path> <rect x="98" y="220" width="341" height="101" rx="7" stroke="#F1FDFF" stroke-width="6"></rect> <path d="M226.584 290V288.794H228.726V282.206H226.584V281H228.726V280.496C228.726 279.368 229.02 278.552 229.608 278.048C230.196 277.544 231.036 277.292 232.128 277.292C232.524 277.292 232.878 277.316 233.19 277.364C233.502 277.412 233.838 277.508 234.198 277.652L233.874 278.822C233.562 278.69 233.262 278.606 232.974 278.57C232.686 278.522 232.422 278.498 232.182 278.498C231.39 278.498 230.85 278.696 230.562 279.092C230.274 279.476 230.13 280.112 230.13 281H233.856V282.206H230.13V288.794H233.856V290H226.584ZM236.819 285.5C236.819 284.048 237.197 282.902 237.953 282.062C238.709 281.21 239.789 280.784 241.193 280.784C241.949 280.784 242.597 280.91 243.137 281.162C243.689 281.402 244.145 281.732 244.505 282.152C244.865 282.572 245.129 283.07 245.297 283.646C245.477 284.222 245.567 284.84 245.567 285.5C245.567 286.22 245.471 286.874 245.279 287.462C245.087 288.038 244.805 288.53 244.433 288.938C244.061 289.346 243.599 289.664 243.047 289.892C242.507 290.108 241.889 290.216 241.193 290.216C240.449 290.216 239.801 290.096 239.249 289.856C238.697 289.604 238.241 289.268 237.881 288.848C237.521 288.428 237.251 287.93 237.071 287.354C236.903 286.778 236.819 286.16 236.819 285.5ZM238.313 285.5C238.313 285.92 238.361 286.34 238.457 286.76C238.565 287.18 238.733 287.558 238.961 287.894C239.189 288.23 239.483 288.5 239.843 288.704C240.215 288.908 240.665 289.01 241.193 289.01C242.153 289.01 242.873 288.716 243.353 288.128C243.845 287.528 244.091 286.652 244.091 285.5C244.091 285.068 244.037 284.648 243.929 284.24C243.833 283.82 243.665 283.442 243.425 283.106C243.197 282.77 242.897 282.5 242.525 282.296C242.165 282.092 241.721 281.99 241.193 281.99C240.233 281.99 239.513 282.284 239.033 282.872C238.553 283.46 238.313 284.336 238.313 285.5ZM247.612 285.5C247.612 284.048 247.99 282.902 248.746 282.062C249.502 281.21 250.582 280.784 251.986 280.784C252.742 280.784 253.39 280.91 253.93 281.162C254.482 281.402 254.938 281.732 255.298 282.152C255.658 282.572 255.922 283.07 256.09 283.646C256.27 284.222 256.36 284.84 256.36 285.5C256.36 286.22 256.264 286.874 256.072 287.462C255.88 288.038 255.598 288.53 255.226 288.938C254.854 289.346 254.392 289.664 253.84 289.892C253.3 290.108 252.682 290.216 251.986 290.216C251.242 290.216 250.594 290.096 250.042 289.856C249.49 289.604 249.034 289.268 248.674 288.848C248.314 288.428 248.044 287.93 247.864 287.354C247.696 286.778 247.612 286.16 247.612 285.5ZM249.106 285.5C249.106 285.92 249.154 286.34 249.25 286.76C249.358 287.18 249.526 287.558 249.754 287.894C249.982 288.23 250.276 288.5 250.636 288.704C251.008 288.908 251.458 289.01 251.986 289.01C252.946 289.01 253.666 288.716 254.146 288.128C254.638 287.528 254.884 286.652 254.884 285.5C254.884 285.068 254.83 284.648 254.722 284.24C254.626 283.82 254.458 283.442 254.218 283.106C253.99 282.77 253.69 282.5 253.318 282.296C252.958 282.092 252.514 281.99 251.986 281.99C251.026 281.99 250.306 282.284 249.826 282.872C249.346 283.46 249.106 284.336 249.106 285.5ZM269.396 281.774H277.748V283.07H269.396V281.774ZM269.396 284.726H277.748V286.022H269.396V284.726ZM292.044 288.704H294.87V279.236L291.99 281.252L291.288 280.226L295.248 277.4H296.256V288.704H299.028V290H292.044V288.704ZM301.541 283.7C301.541 282.68 301.631 281.768 301.811 280.964C301.991 280.148 302.261 279.464 302.621 278.912C302.981 278.348 303.437 277.922 303.989 277.634C304.541 277.334 305.195 277.184 305.951 277.184C306.755 277.184 307.433 277.328 307.985 277.616C308.549 277.904 309.005 278.324 309.353 278.876C309.701 279.428 309.953 280.112 310.109 280.928C310.265 281.732 310.343 282.656 310.343 283.7C310.343 284.72 310.253 285.638 310.073 286.454C309.893 287.258 309.623 287.942 309.263 288.506C308.903 289.058 308.447 289.484 307.895 289.784C307.343 290.072 306.689 290.216 305.933 290.216C305.141 290.216 304.463 290.06 303.899 289.748C303.347 289.424 302.891 288.974 302.531 288.398C302.183 287.822 301.931 287.138 301.775 286.346C301.619 285.542 301.541 284.66 301.541 283.7ZM308.867 283.7C308.867 283.064 308.831 282.458 308.759 281.882L303.413 286.76C303.617 287.444 303.923 287.99 304.331 288.398C304.739 288.806 305.273 289.01 305.933 289.01C306.989 289.01 307.739 288.572 308.183 287.696C308.639 286.82 308.867 285.488 308.867 283.7ZM303.035 283.7C303.035 284 303.041 284.288 303.053 284.564C303.077 284.84 303.101 285.11 303.125 285.374L308.489 280.514C308.285 279.866 307.979 279.35 307.571 278.966C307.175 278.582 306.635 278.39 305.951 278.39C304.883 278.39 304.127 278.834 303.683 279.722C303.251 280.598 303.035 281.924 303.035 283.7Z" fill="#FFF0DA"></path> <path d="M146.344 263.512H146.464L149.776 251.2H153.184L148.144 268H144.4L139.216 251.2H142.888L146.344 263.512ZM155.551 256.816C156.191 256.528 156.927 256.28 157.759 256.072C158.607 255.864 159.607 255.76 160.759 255.76C161.591 255.76 162.295 255.864 162.871 256.072C163.463 256.264 163.935 256.544 164.287 256.912C164.655 257.28 164.919 257.72 165.079 258.232C165.239 258.744 165.319 259.32 165.319 259.96C165.319 260.776 165.287 261.472 165.223 262.048C165.175 262.624 165.151 263.136 165.151 263.584C165.151 263.92 165.167 264.296 165.199 264.712C165.231 264.936 165.255 265.152 165.271 265.36H166.831V268H162.847L162.535 266.368H162.415C162.095 266.864 161.639 267.296 161.047 267.664C160.455 268.016 159.655 268.192 158.647 268.192C157.447 268.192 156.495 267.872 155.791 267.232C155.087 266.592 154.735 265.744 154.735 264.688C154.735 264.016 154.855 263.44 155.095 262.96C155.351 262.464 155.711 262.064 156.175 261.76C156.655 261.44 157.223 261.208 157.879 261.064C158.551 260.904 159.295 260.824 160.111 260.824C160.399 260.824 160.703 260.84 161.023 260.872C161.343 260.904 161.735 260.936 162.199 260.968C162.231 260.808 162.247 260.648 162.247 260.488V260.032C162.247 259.424 162.071 258.992 161.719 258.736C161.367 258.464 160.847 258.328 160.159 258.328C159.343 258.328 158.607 258.432 157.951 258.64C157.295 258.848 156.743 259.056 156.295 259.264L155.551 256.816ZM159.655 265.624C160.423 265.624 160.999 265.488 161.383 265.216C161.767 264.928 162.047 264.624 162.223 264.304V262.864C162.063 262.832 161.823 262.8 161.503 262.768C161.183 262.72 160.839 262.696 160.471 262.696C160.167 262.696 159.863 262.728 159.559 262.792C159.255 262.84 158.983 262.928 158.743 263.056C158.503 263.168 158.311 263.32 158.167 263.512C158.023 263.704 157.951 263.936 157.951 264.208C157.951 264.656 158.079 265.008 158.335 265.264C158.607 265.504 159.047 265.624 159.655 265.624ZM168.717 265.36H171.693V258.64H168.717V256H174.117L174.477 257.584H174.573C175.021 257.056 175.533 256.616 176.109 256.264C176.685 255.912 177.357 255.736 178.125 255.736C179.085 255.736 179.837 256.088 180.381 256.792C180.941 257.496 181.221 258.672 181.221 260.32H178.413C178.413 259.744 178.325 259.328 178.149 259.072C177.989 258.8 177.725 258.664 177.357 258.664C176.717 258.664 176.197 258.824 175.797 259.144C175.413 259.464 175.085 259.832 174.813 260.248V265.36H180.021V268H168.717V265.36ZM183.588 265.36H187.812V258.64H183.588V256H190.932V265.36H195.372V268H183.588V265.36ZM187.236 252.736C187.236 252.24 187.42 251.816 187.788 251.464C188.156 251.112 188.668 250.936 189.324 250.936C189.996 250.936 190.532 251.112 190.932 251.464C191.332 251.816 191.532 252.24 191.532 252.736C191.532 253.248 191.332 253.672 190.932 254.008C190.532 254.328 189.996 254.488 189.324 254.488C188.668 254.488 188.156 254.328 187.788 254.008C187.42 253.672 187.236 253.248 187.236 252.736ZM198.723 256.816C199.363 256.528 200.099 256.28 200.931 256.072C201.779 255.864 202.779 255.76 203.931 255.76C204.763 255.76 205.467 255.864 206.043 256.072C206.635 256.264 207.107 256.544 207.459 256.912C207.827 257.28 208.091 257.72 208.251 258.232C208.411 258.744 208.491 259.32 208.491 259.96C208.491 260.776 208.459 261.472 208.395 262.048C208.347 262.624 208.323 263.136 208.323 263.584C208.323 263.92 208.339 264.296 208.371 264.712C208.403 264.936 208.427 265.152 208.443 265.36H210.003V268H206.019L205.707 266.368H205.587C205.267 266.864 204.811 267.296 204.219 267.664C203.627 268.016 202.827 268.192 201.819 268.192C200.619 268.192 199.667 267.872 198.963 267.232C198.259 266.592 197.907 265.744 197.907 264.688C197.907 264.016 198.027 263.44 198.267 262.96C198.523 262.464 198.883 262.064 199.347 261.76C199.827 261.44 200.395 261.208 201.051 261.064C201.723 260.904 202.467 260.824 203.283 260.824C203.571 260.824 203.875 260.84 204.195 260.872C204.515 260.904 204.907 260.936 205.371 260.968C205.403 260.808 205.419 260.648 205.419 260.488V260.032C205.419 259.424 205.243 258.992 204.891 258.736C204.539 258.464 204.019 258.328 203.331 258.328C202.515 258.328 201.779 258.432 201.123 258.64C200.467 258.848 199.915 259.056 199.467 259.264L198.723 256.816ZM202.827 265.624C203.595 265.624 204.171 265.488 204.555 265.216C204.939 264.928 205.219 264.624 205.395 264.304V262.864C205.235 262.832 204.995 262.8 204.675 262.768C204.355 262.72 204.011 262.696 203.643 262.696C203.339 262.696 203.035 262.728 202.73 262.792C202.427 262.84 202.155 262.928 201.915 263.056C201.675 263.168 201.483 263.32 201.339 263.512C201.195 263.704 201.123 263.936 201.123 264.208C201.123 264.656 201.251 265.008 201.507 265.264C201.779 265.504 202.219 265.624 202.827 265.624ZM210.641 251.2H215.609V256.96H215.705C216.041 256.576 216.489 256.272 217.049 256.048C217.625 255.824 218.329 255.712 219.161 255.712C220.745 255.712 222.009 256.208 222.953 257.2C223.913 258.192 224.393 259.688 224.393 261.688C224.393 262.76 224.233 263.712 223.913 264.544C223.593 265.36 223.137 266.048 222.545 266.608C221.969 267.152 221.257 267.568 220.409 267.856C219.577 268.144 218.633 268.288 217.577 268.288C216.329 268.288 215.281 268.144 214.433 267.856C213.601 267.568 212.953 267.28 212.489 266.992V253.84H210.641V251.2ZM218.297 258.352C218.073 258.352 217.825 258.392 217.553 258.472C217.281 258.552 217.017 258.664 216.761 258.808C216.521 258.952 216.289 259.136 216.065 259.36C215.857 259.568 215.705 259.808 215.609 260.08V265.072C215.865 265.2 216.217 265.328 216.665 265.456C217.113 265.584 217.593 265.648 218.105 265.648C218.521 265.648 218.913 265.576 219.281 265.432C219.665 265.272 219.993 265.032 220.265 264.712C220.553 264.392 220.777 263.992 220.937 263.512C221.097 263.032 221.177 262.456 221.177 261.784C221.177 260.648 220.929 259.792 220.433 259.216C219.953 258.64 219.241 258.352 218.297 258.352ZM227.432 251.2H232.544V262.288C232.544 263.52 232.696 264.376 233 264.856C233.304 265.336 233.792 265.576 234.464 265.576C234.96 265.576 235.368 265.528 235.688 265.432C236.008 265.32 236.328 265.168 236.648 264.976L237.824 267.136C237.552 267.312 237.28 267.48 237.008 267.64C236.736 267.784 236.448 267.904 236.144 268C235.84 268.112 235.504 268.192 235.136 268.24C234.784 268.304 234.384 268.336 233.936 268.336C232.432 268.336 231.304 267.952 230.552 267.184C229.8 266.416 229.424 265.328 229.424 263.92V253.84H227.432V251.2ZM252.55 266.728C252.342 266.92 252.07 267.112 251.734 267.304C251.414 267.48 251.03 267.648 250.582 267.808C250.15 267.968 249.67 268.096 249.142 268.192C248.614 268.288 248.054 268.336 247.462 268.336C246.438 268.336 245.518 268.192 244.702 267.904C243.902 267.616 243.222 267.2 242.662 266.656C242.102 266.096 241.67 265.432 241.366 264.664C241.078 263.88 240.934 262.992 240.934 262C240.934 260.944 241.102 260.024 241.438 259.24C241.774 258.44 242.23 257.776 242.806 257.248C243.398 256.72 244.086 256.328 244.87 256.072C245.654 255.8 246.502 255.664 247.414 255.664C248.022 255.664 248.646 255.744 249.286 255.904C249.942 256.064 250.542 256.344 251.086 256.744C251.63 257.128 252.07 257.648 252.406 258.304C252.758 258.96 252.934 259.792 252.934 260.8C252.934 261.488 252.854 262.232 252.694 263.032H244.054C244.07 263.544 244.174 263.976 244.366 264.328C244.574 264.68 244.838 264.968 245.158 265.192C245.494 265.416 245.87 265.584 246.286 265.696C246.718 265.792 247.174 265.84 247.654 265.84C248.614 265.84 249.398 265.728 250.006 265.504C250.63 265.28 251.134 265.008 251.518 264.688L252.55 266.728ZM247.366 258.16C246.95 258.16 246.558 258.216 246.19 258.328C245.822 258.44 245.486 258.608 245.182 258.832C244.894 259.04 244.654 259.304 244.462 259.624C244.27 259.944 244.158 260.304 244.126 260.704H250.03C250.03 259.92 249.806 259.304 249.358 258.856C248.926 258.392 248.262 258.16 247.366 258.16ZM255.325 251.2C255.469 251.184 255.717 251.16 256.069 251.128C256.437 251.096 256.845 251.072 257.293 251.056C257.757 251.024 258.229 251 258.709 250.984C259.205 250.968 259.645 250.96 260.029 250.96C261.517 250.96 262.749 251.176 263.725 251.608C264.701 252.04 265.469 252.64 266.029 253.408C266.605 254.16 267.005 255.056 267.229 256.096C267.453 257.12 267.565 258.24 267.565 259.456C267.565 260.56 267.453 261.64 267.229 262.696C267.005 263.752 266.597 264.696 266.005 265.528C265.429 266.344 264.621 267.008 263.581 267.52C262.557 268.016 261.237 268.264 259.621 268.264C259.365 268.264 259.037 268.256 258.637 268.24C258.237 268.224 257.829 268.2 257.413 268.168C256.997 268.152 256.597 268.128 256.213 268.096C255.829 268.08 255.533 268.056 255.325 268.024V251.2ZM260.149 253.888C259.845 253.888 259.549 253.904 259.261 253.936C258.973 253.952 258.757 253.968 258.613 253.984V265.24C258.677 265.256 258.773 265.272 258.901 265.288C259.029 265.288 259.157 265.296 259.285 265.312C259.429 265.312 259.565 265.32 259.693 265.336C259.821 265.336 259.925 265.336 260.005 265.336C260.933 265.336 261.669 265.168 262.213 264.832C262.773 264.48 263.189 264.024 263.461 263.464C263.733 262.904 263.909 262.272 263.989 261.568C264.069 260.864 264.109 260.16 264.109 259.456C264.109 258.848 264.069 258.216 263.989 257.56C263.925 256.904 263.757 256.304 263.485 255.76C263.229 255.216 262.837 254.768 262.309 254.416C261.781 254.064 261.061 253.888 260.149 253.888ZM281.332 266.728C281.124 266.92 280.852 267.112 280.516 267.304C280.196 267.48 279.812 267.648 279.364 267.808C278.932 267.968 278.452 268.096 277.924 268.192C277.396 268.288 276.836 268.336 276.244 268.336C275.22 268.336 274.3 268.192 273.484 267.904C272.684 267.616 272.004 267.2 271.444 266.656C270.884 266.096 270.452 265.432 270.148 264.664C269.86 263.88 269.716 262.992 269.716 262C269.716 260.944 269.884 260.024 270.22 259.24C270.556 258.44 271.012 257.776 271.588 257.248C272.18 256.72 272.868 256.328 273.652 256.072C274.436 255.8 275.284 255.664 276.196 255.664C276.804 255.664 277.428 255.744 278.068 255.904C278.724 256.064 279.324 256.344 279.868 256.744C280.412 257.128 280.852 257.648 281.188 258.304C281.54 258.96 281.716 259.792 281.716 260.8C281.716 261.488 281.636 262.232 281.476 263.032H272.836C272.852 263.544 272.956 263.976 273.148 264.328C273.356 264.68 273.62 264.968 273.94 265.192C274.276 265.416 274.652 265.584 275.068 265.696C275.5 265.792 275.956 265.84 276.436 265.84C277.396 265.84 278.18 265.728 278.788 265.504C279.412 265.28 279.916 265.008 280.3 264.688L281.332 266.728ZM276.148 258.16C275.732 258.16 275.34 258.216 274.972 258.328C274.604 258.44 274.268 258.608 273.964 258.832C273.676 259.04 273.436 259.304 273.244 259.624C273.052 259.944 272.94 260.304 272.908 260.704H278.812C278.812 259.92 278.588 259.304 278.14 258.856C277.708 258.392 277.044 258.16 276.148 258.16ZM296.01 266.848C295.354 267.344 294.586 267.72 293.706 267.976C292.826 268.216 291.906 268.336 290.946 268.336C289.906 268.336 288.978 268.184 288.162 267.88C287.362 267.576 286.682 267.152 286.122 266.608C285.578 266.048 285.162 265.376 284.874 264.592C284.586 263.808 284.442 262.944 284.442 262C284.442 260.992 284.61 260.096 284.946 259.312C285.282 258.528 285.746 257.864 286.338 257.32C286.946 256.776 287.658 256.368 288.474 256.096C289.29 255.808 290.178 255.664 291.138 255.664C292.034 255.664 292.874 255.768 293.658 255.976C294.442 256.184 295.042 256.384 295.458 256.576V260.8H292.818V258.592C292.322 258.48 291.826 258.424 291.33 258.424C290.882 258.424 290.434 258.496 289.986 258.64C289.554 258.768 289.162 258.984 288.81 259.288C288.474 259.576 288.194 259.944 287.97 260.392C287.762 260.84 287.658 261.376 287.658 262C287.658 262.512 287.746 262.984 287.922 263.416C288.098 263.848 288.346 264.224 288.666 264.544C288.986 264.864 289.378 265.12 289.842 265.312C290.322 265.488 290.85 265.576 291.426 265.576C292.338 265.576 293.082 265.448 293.658 265.192C294.25 264.936 294.69 264.712 294.978 264.52L296.01 266.848ZM299.385 251.2H304.497V262.288C304.497 263.52 304.649 264.376 304.953 264.856C305.257 265.336 305.745 265.576 306.417 265.576C306.913 265.576 307.321 265.528 307.641 265.432C307.961 265.32 308.281 265.168 308.601 264.976L309.777 267.136C309.505 267.312 309.233 267.48 308.961 267.64C308.689 267.784 308.401 267.904 308.097 268C307.793 268.112 307.457 268.192 307.089 268.24C306.737 268.304 306.337 268.336 305.889 268.336C304.385 268.336 303.257 267.952 302.505 267.184C301.753 266.416 301.377 265.328 301.377 263.92V253.84H299.385V251.2ZM313.848 256.816C314.488 256.528 315.224 256.28 316.056 256.072C316.904 255.864 317.904 255.76 319.056 255.76C319.888 255.76 320.592 255.864 321.168 256.072C321.76 256.264 322.232 256.544 322.584 256.912C322.952 257.28 323.216 257.72 323.376 258.232C323.536 258.744 323.616 259.32 323.616 259.96C323.616 260.776 323.584 261.472 323.52 262.048C323.472 262.624 323.448 263.136 323.448 263.584C323.448 263.92 323.464 264.296 323.496 264.712C323.528 264.936 323.552 265.152 323.568 265.36H325.128V268H321.144L320.832 266.368H320.712C320.392 266.864 319.936 267.296 319.344 267.664C318.752 268.016 317.952 268.192 316.944 268.192C315.744 268.192 314.792 267.872 314.088 267.232C313.384 266.592 313.032 265.744 313.032 264.688C313.032 264.016 313.152 263.44 313.392 262.96C313.648 262.464 314.008 262.064 314.472 261.76C314.952 261.44 315.52 261.208 316.176 261.064C316.848 260.904 317.592 260.824 318.408 260.824C318.696 260.824 319 260.84 319.32 260.872C319.64 260.904 320.032 260.936 320.496 260.968C320.528 260.808 320.544 260.648 320.544 260.488V260.032C320.544 259.424 320.368 258.992 320.016 258.736C319.664 258.464 319.144 258.328 318.456 258.328C317.64 258.328 316.904 258.432 316.248 258.64C315.592 258.848 315.04 259.056 314.592 259.264L313.848 256.816ZM317.952 265.624C318.72 265.624 319.296 265.488 319.68 265.216C320.064 264.928 320.344 264.624 320.52 264.304V262.864C320.36 262.832 320.12 262.8 319.8 262.768C319.48 262.72 319.136 262.696 318.768 262.696C318.464 262.696 318.16 262.728 317.855 262.792C317.552 262.84 317.28 262.928 317.04 263.056C316.8 263.168 316.608 263.32 316.464 263.512C316.32 263.704 316.248 263.936 316.248 264.208C316.248 264.656 316.376 265.008 316.632 265.264C316.904 265.504 317.344 265.624 317.952 265.624ZM327.014 265.36H329.99V258.64H327.014V256H332.414L332.774 257.584H332.87C333.318 257.056 333.83 256.616 334.406 256.264C334.982 255.912 335.654 255.736 336.422 255.736C337.382 255.736 338.134 256.088 338.678 256.792C339.238 257.496 339.518 258.672 339.518 260.32H336.71C336.71 259.744 336.622 259.328 336.446 259.072C336.286 258.8 336.022 258.664 335.654 258.664C335.014 258.664 334.494 258.824 334.094 259.144C333.71 259.464 333.382 259.832 333.11 260.248V265.36H338.318V268H327.014V265.36ZM342.629 256.816C343.269 256.528 344.005 256.28 344.837 256.072C345.685 255.864 346.685 255.76 347.837 255.76C348.669 255.76 349.373 255.864 349.949 256.072C350.541 256.264 351.013 256.544 351.365 256.912C351.733 257.28 351.997 257.72 352.157 258.232C352.317 258.744 352.397 259.32 352.397 259.96C352.397 260.776 352.365 261.472 352.301 262.048C352.253 262.624 352.229 263.136 352.229 263.584C352.229 263.92 352.245 264.296 352.277 264.712C352.309 264.936 352.333 265.152 352.349 265.36H353.909V268H349.925L349.613 266.368H349.493C349.173 266.864 348.717 267.296 348.125 267.664C347.533 268.016 346.733 268.192 345.725 268.192C344.525 268.192 343.573 267.872 342.869 267.232C342.165 266.592 341.813 265.744 341.813 264.688C341.813 264.016 341.933 263.44 342.173 262.96C342.429 262.464 342.789 262.064 343.253 261.76C343.733 261.44 344.301 261.208 344.957 261.064C345.629 260.904 346.373 260.824 347.189 260.824C347.477 260.824 347.781 260.84 348.101 260.872C348.421 260.904 348.813 260.936 349.277 260.968C349.309 260.808 349.325 260.648 349.325 260.488V260.032C349.325 259.424 349.149 258.992 348.797 258.736C348.445 258.464 347.925 258.328 347.237 258.328C346.421 258.328 345.685 258.432 345.029 258.64C344.373 258.848 343.821 259.056 343.373 259.264L342.629 256.816ZM346.733 265.624C347.501 265.624 348.077 265.488 348.461 265.216C348.845 264.928 349.125 264.624 349.301 264.304V262.864C349.141 262.832 348.901 262.8 348.581 262.768C348.261 262.72 347.917 262.696 347.549 262.696C347.245 262.696 346.941 262.728 346.637 262.792C346.333 262.84 346.061 262.928 345.821 263.056C345.581 263.168 345.389 263.32 345.245 263.512C345.101 263.704 345.029 263.936 345.029 264.208C345.029 264.656 345.157 265.008 345.413 265.264C345.685 265.504 346.125 265.624 346.733 265.624ZM357.643 258.64H355.267V256H357.643V253.264L360.763 252.376V256H367.051V258.64H360.763V262.072C360.763 263.304 360.995 264.2 361.459 264.76C361.923 265.304 362.571 265.576 363.403 265.576C363.835 265.576 364.227 265.528 364.579 265.432C364.931 265.32 365.243 265.184 365.515 265.024C365.803 264.864 366.059 264.688 366.283 264.496C366.523 264.304 366.739 264.128 366.931 263.968L368.371 266.128C368.099 266.448 367.755 266.744 367.339 267.016C366.939 267.272 366.499 267.504 366.019 267.712C365.555 267.904 365.067 268.056 364.555 268.168C364.043 268.28 363.539 268.336 363.043 268.336C361.251 268.336 359.899 267.84 358.987 266.848C358.091 265.84 357.643 264.248 357.643 262.072V258.64ZM370.09 262C370.09 260.992 370.242 260.096 370.546 259.312C370.85 258.528 371.282 257.864 371.842 257.32C372.402 256.776 373.066 256.368 373.834 256.096C374.618 255.808 375.49 255.664 376.45 255.664C377.458 255.664 378.354 255.816 379.138 256.12C379.938 256.424 380.61 256.856 381.154 257.416C381.698 257.96 382.106 258.624 382.378 259.408C382.666 260.192 382.81 261.056 382.81 262C382.81 263.008 382.658 263.904 382.354 264.688C382.05 265.472 381.618 266.136 381.058 266.68C380.498 267.224 379.826 267.64 379.042 267.928C378.274 268.2 377.41 268.336 376.45 268.336C375.442 268.336 374.538 268.184 373.738 267.88C372.954 267.576 372.29 267.152 371.746 266.608C371.202 266.048 370.786 265.376 370.498 264.592C370.226 263.808 370.09 262.944 370.09 262ZM373.306 262C373.306 262.528 373.378 263.016 373.522 263.464C373.666 263.912 373.874 264.304 374.146 264.64C374.418 264.976 374.746 265.24 375.13 265.432C375.514 265.608 375.954 265.696 376.45 265.696C377.378 265.696 378.13 265.4 378.706 264.808C379.298 264.216 379.594 263.28 379.594 262C379.594 260.896 379.322 260.008 378.778 259.336C378.234 258.648 377.458 258.304 376.45 258.304C376.002 258.304 375.586 258.376 375.202 258.52C374.818 258.648 374.482 258.864 374.194 259.168C373.922 259.472 373.706 259.856 373.546 260.32C373.386 260.784 373.306 261.344 373.306 262ZM384.577 265.36H387.553V258.64H384.577V256H389.977L390.337 257.584H390.433C390.881 257.056 391.393 256.616 391.969 256.264C392.545 255.912 393.217 255.736 393.985 255.736C394.945 255.736 395.697 256.088 396.241 256.792C396.801 257.496 397.081 258.672 397.081 260.32H394.273C394.273 259.744 394.185 259.328 394.009 259.072C393.849 258.8 393.585 258.664 393.217 258.664C392.577 258.664 392.057 258.824 391.657 259.144C391.273 259.464 390.945 259.832 390.673 260.248V265.36H395.881V268H384.577V265.36Z" fill="#EDD0FF"></path> <rect x="3" y="428" width="228" height="101" rx="7" stroke="#F1FDFF" stroke-width="6"></rect> <path d="M102.584 498V496.794H104.726V490.206H102.584V489H104.726V488.496C104.726 487.368 105.02 486.552 105.608 486.048C106.196 485.544 107.036 485.292 108.128 485.292C108.524 485.292 108.878 485.316 109.19 485.364C109.502 485.412 109.838 485.508 110.198 485.652L109.874 486.822C109.562 486.69 109.262 486.606 108.974 486.57C108.686 486.522 108.422 486.498 108.182 486.498C107.39 486.498 106.85 486.696 106.562 487.092C106.274 487.476 106.13 488.112 106.13 489H109.856V490.206H106.13V496.794H109.856V498H102.584ZM112.819 493.5C112.819 492.048 113.197 490.902 113.953 490.062C114.709 489.21 115.789 488.784 117.193 488.784C117.949 488.784 118.597 488.91 119.137 489.162C119.689 489.402 120.145 489.732 120.505 490.152C120.865 490.572 121.129 491.07 121.297 491.646C121.477 492.222 121.567 492.84 121.567 493.5C121.567 494.22 121.471 494.874 121.279 495.462C121.087 496.038 120.805 496.53 120.433 496.938C120.061 497.346 119.599 497.664 119.047 497.892C118.507 498.108 117.889 498.216 117.193 498.216C116.449 498.216 115.801 498.096 115.249 497.856C114.697 497.604 114.241 497.268 113.881 496.848C113.521 496.428 113.251 495.93 113.071 495.354C112.903 494.778 112.819 494.16 112.819 493.5ZM114.313 493.5C114.313 493.92 114.361 494.34 114.457 494.76C114.565 495.18 114.733 495.558 114.961 495.894C115.189 496.23 115.483 496.5 115.843 496.704C116.215 496.908 116.665 497.01 117.193 497.01C118.153 497.01 118.873 496.716 119.353 496.128C119.845 495.528 120.091 494.652 120.091 493.5C120.091 493.068 120.037 492.648 119.929 492.24C119.833 491.82 119.665 491.442 119.425 491.106C119.197 490.77 118.897 490.5 118.525 490.296C118.165 490.092 117.721 489.99 117.193 489.99C116.233 489.99 115.513 490.284 115.033 490.872C114.553 491.46 114.313 492.336 114.313 493.5ZM123.612 493.5C123.612 492.048 123.99 490.902 124.746 490.062C125.502 489.21 126.582 488.784 127.986 488.784C128.742 488.784 129.39 488.91 129.93 489.162C130.482 489.402 130.938 489.732 131.298 490.152C131.658 490.572 131.922 491.07 132.09 491.646C132.27 492.222 132.36 492.84 132.36 493.5C132.36 494.22 132.264 494.874 132.072 495.462C131.88 496.038 131.598 496.53 131.226 496.938C130.854 497.346 130.392 497.664 129.84 497.892C129.3 498.108 128.682 498.216 127.986 498.216C127.242 498.216 126.594 498.096 126.042 497.856C125.49 497.604 125.034 497.268 124.674 496.848C124.314 496.428 124.044 495.93 123.864 495.354C123.696 494.778 123.612 494.16 123.612 493.5ZM125.106 493.5C125.106 493.92 125.154 494.34 125.25 494.76C125.358 495.18 125.526 495.558 125.754 495.894C125.982 496.23 126.276 496.5 126.636 496.704C127.008 496.908 127.458 497.01 127.986 497.01C128.946 497.01 129.666 496.716 130.146 496.128C130.638 495.528 130.884 494.652 130.884 493.5C130.884 493.068 130.83 492.648 130.722 492.24C130.626 491.82 130.458 491.442 130.218 491.106C129.99 490.77 129.69 490.5 129.318 490.296C128.958 490.092 128.514 489.99 127.986 489.99C127.026 489.99 126.306 490.284 125.826 490.872C125.346 491.46 125.106 492.336 125.106 493.5Z" fill="#FFF0DA"></path> <path d="M46.296 473.072H50.544V462.128H46.296V459.2H58.104V462.128H53.832V473.072H58.104V476H46.296V473.072ZM66.7346 459.2H71.7506V469.568C71.7506 470.768 71.8146 471.952 71.9426 473.12C71.9426 473.2 71.9506 473.28 71.9666 473.36H73.5026V476H69.6386L69.3266 474.464H69.2306C69.0706 474.752 68.8546 475.008 68.5826 475.232C68.3106 475.456 68.0066 475.656 67.6706 475.832C67.3346 475.992 66.9666 476.112 66.5666 476.192C66.1666 476.288 65.7666 476.336 65.3666 476.336C64.6146 476.336 63.9026 476.216 63.2306 475.976C62.5746 475.736 61.9986 475.368 61.5026 474.872C61.0066 474.36 60.6146 473.72 60.3266 472.952C60.0386 472.168 59.8946 471.248 59.8946 470.192C59.8946 469.168 60.0466 468.256 60.3506 467.456C60.6706 466.656 61.1026 465.984 61.6466 465.44C62.2066 464.88 62.8626 464.456 63.6146 464.168C64.3666 463.864 65.1906 463.712 66.0866 463.712C66.5826 463.712 67.0466 463.744 67.4786 463.808C67.9266 463.856 68.3106 463.944 68.6306 464.072V461.84H66.7346V459.2ZM66.0866 473.696C66.6946 473.696 67.2306 473.552 67.6946 473.264C68.1746 472.96 68.4866 472.528 68.6306 471.968V466.88C68.4066 466.704 68.0946 466.576 67.6946 466.496C67.3106 466.4 66.9026 466.352 66.4706 466.352C66.0386 466.352 65.6146 466.424 65.1986 466.568C64.7986 466.712 64.4386 466.944 64.1186 467.264C63.8146 467.568 63.5666 467.968 63.3746 468.464C63.1986 468.96 63.1106 469.568 63.1106 470.288C63.1106 471.312 63.3666 472.136 63.8786 472.76C64.3906 473.384 65.1266 473.696 66.0866 473.696ZM86.5973 474.728C86.3893 474.92 86.1173 475.112 85.7812 475.304C85.4613 475.48 85.0773 475.648 84.6293 475.808C84.1973 475.968 83.7173 476.096 83.1893 476.192C82.6613 476.288 82.1013 476.336 81.5093 476.336C80.4853 476.336 79.5653 476.192 78.7493 475.904C77.9493 475.616 77.2693 475.2 76.7093 474.656C76.1493 474.096 75.7173 473.432 75.4133 472.664C75.1253 471.88 74.9813 470.992 74.9813 470C74.9813 468.944 75.1493 468.024 75.4853 467.24C75.8213 466.44 76.2773 465.776 76.8533 465.248C77.4453 464.72 78.1333 464.328 78.9173 464.072C79.7013 463.8 80.5493 463.664 81.4613 463.664C82.0693 463.664 82.6933 463.744 83.3333 463.904C83.9893 464.064 84.5893 464.344 85.1333 464.744C85.6773 465.128 86.1173 465.648 86.4532 466.304C86.8053 466.96 86.9813 467.792 86.9813 468.8C86.9813 469.488 86.9013 470.232 86.7413 471.032H78.1013C78.1173 471.544 78.2213 471.976 78.4133 472.328C78.6213 472.68 78.8853 472.968 79.2053 473.192C79.5413 473.416 79.9173 473.584 80.3333 473.696C80.7653 473.792 81.2213 473.84 81.7013 473.84C82.6613 473.84 83.4453 473.728 84.0533 473.504C84.6773 473.28 85.1813 473.008 85.5653 472.688L86.5973 474.728ZM81.4133 466.16C80.9973 466.16 80.6053 466.216 80.2373 466.328C79.8693 466.44 79.5333 466.608 79.2293 466.832C78.9413 467.04 78.7013 467.304 78.5093 467.624C78.3173 467.944 78.2053 468.304 78.1733 468.704H84.0773C84.0773 467.92 83.8533 467.304 83.4053 466.856C82.9733 466.392 82.3093 466.16 81.4133 466.16ZM88.4599 464H92.6599L93.0199 465.584H93.1159C93.4839 465.072 94.0119 464.624 94.6999 464.24C95.3879 463.856 96.2119 463.664 97.1719 463.664C97.7639 463.664 98.3159 463.744 98.8279 463.904C99.3559 464.064 99.8039 464.328 100.172 464.696C100.54 465.064 100.828 465.568 101.036 466.208C101.26 466.832 101.372 467.608 101.372 468.536V476H98.2519V469.184C98.2519 468.208 98.0279 467.504 97.5799 467.072C97.1479 466.64 96.5959 466.424 95.9239 466.424C95.3319 466.424 94.7879 466.6 94.2919 466.952C93.8119 467.288 93.4839 467.712 93.3079 468.224V476H90.1879V466.64H88.4599V464ZM105.347 466.64H102.971V464H105.347V461.264L108.467 460.376V464H114.755V466.64H108.467V470.072C108.467 471.304 108.699 472.2 109.163 472.76C109.627 473.304 110.275 473.576 111.107 473.576C111.539 473.576 111.931 473.528 112.283 473.432C112.635 473.32 112.947 473.184 113.219 473.024C113.507 472.864 113.763 472.688 113.987 472.496C114.227 472.304 114.443 472.128 114.635 471.968L116.075 474.128C115.803 474.448 115.459 474.744 115.043 475.016C114.643 475.272 114.203 475.504 113.723 475.712C113.259 475.904 112.771 476.056 112.259 476.168C111.747 476.28 111.243 476.336 110.747 476.336C108.955 476.336 107.603 475.84 106.691 474.848C105.795 473.84 105.347 472.248 105.347 470.072V466.64ZM118.369 473.36H122.593V466.64H118.369V464H125.713V473.36H130.153V476H118.369V473.36ZM122.017 460.736C122.017 460.24 122.201 459.816 122.569 459.464C122.937 459.112 123.449 458.936 124.105 458.936C124.777 458.936 125.313 459.112 125.713 459.464C126.113 459.816 126.313 460.24 126.313 460.736C126.313 461.248 126.113 461.672 125.713 462.008C125.313 462.328 124.777 462.488 124.105 462.488C123.449 462.488 122.937 462.328 122.569 462.008C122.201 461.672 122.017 461.248 122.017 460.736ZM133.048 476V473.36H135.88V466.64H133.024V464H135.88V463.328C135.88 462.576 136.008 461.928 136.264 461.384C136.536 460.84 136.888 460.392 137.32 460.04C137.752 459.688 138.248 459.432 138.808 459.272C139.384 459.096 139.976 459.008 140.584 459.008C141.688 459.008 142.592 459.104 143.296 459.296C144.016 459.472 144.608 459.696 145.072 459.968L144.16 462.344C143.792 462.168 143.392 462.008 142.96 461.864C142.544 461.72 142 461.648 141.328 461.648C140.464 461.648 139.856 461.848 139.504 462.248C139.168 462.632 139 463.216 139 464H144.04V466.64H139V473.36H144.064V476H133.048ZM147.15 473.36H151.374V466.64H147.15V464H154.494V473.36H158.934V476H147.15V473.36ZM150.798 460.736C150.798 460.24 150.982 459.816 151.35 459.464C151.718 459.112 152.23 458.936 152.886 458.936C153.558 458.936 154.094 459.112 154.494 459.464C154.894 459.816 155.094 460.24 155.094 460.736C155.094 461.248 154.894 461.672 154.494 462.008C154.094 462.328 153.558 462.488 152.886 462.488C152.23 462.488 151.718 462.328 151.35 462.008C150.982 461.672 150.798 461.248 150.798 460.736ZM172.941 474.728C172.733 474.92 172.461 475.112 172.125 475.304C171.805 475.48 171.421 475.648 170.973 475.808C170.541 475.968 170.061 476.096 169.533 476.192C169.005 476.288 168.445 476.336 167.853 476.336C166.829 476.336 165.909 476.192 165.093 475.904C164.293 475.616 163.613 475.2 163.053 474.656C162.493 474.096 162.061 473.432 161.757 472.664C161.469 471.88 161.325 470.992 161.325 470C161.325 468.944 161.493 468.024 161.829 467.24C162.165 466.44 162.621 465.776 163.197 465.248C163.789 464.72 164.477 464.328 165.261 464.072C166.045 463.8 166.893 463.664 167.805 463.664C168.413 463.664 169.037 463.744 169.677 463.904C170.333 464.064 170.933 464.344 171.477 464.744C172.021 465.128 172.461 465.648 172.797 466.304C173.149 466.96 173.325 467.792 173.325 468.8C173.325 469.488 173.245 470.232 173.085 471.032H164.445C164.461 471.544 164.565 471.976 164.757 472.328C164.965 472.68 165.229 472.968 165.549 473.192C165.885 473.416 166.261 473.584 166.677 473.696C167.109 473.792 167.565 473.84 168.045 473.84C169.005 473.84 169.789 473.728 170.397 473.504C171.021 473.28 171.525 473.008 171.909 472.688L172.941 474.728ZM167.757 466.16C167.341 466.16 166.949 466.216 166.581 466.328C166.213 466.44 165.877 466.608 165.573 466.832C165.285 467.04 165.045 467.304 164.853 467.624C164.661 467.944 164.549 468.304 164.517 468.704H170.421C170.421 467.92 170.197 467.304 169.749 466.856C169.317 466.392 168.653 466.16 167.757 466.16ZM175.452 473.36H178.428V466.64H175.452V464H180.852L181.212 465.584H181.308C181.756 465.056 182.268 464.616 182.844 464.264C183.42 463.912 184.092 463.736 184.86 463.736C185.82 463.736 186.572 464.088 187.116 464.792C187.676 465.496 187.956 466.672 187.956 468.32H185.148C185.148 467.744 185.06 467.328 184.884 467.072C184.724 466.8 184.46 466.664 184.092 466.664C183.452 466.664 182.932 466.824 182.532 467.144C182.148 467.464 181.82 467.832 181.548 468.248V473.36H186.756V476H175.452V473.36Z" fill="#EDD0FF"></path> <rect x="307" y="428" width="228" height="101" rx="7" stroke="#F1FDFF" stroke-width="6"></rect> <path d="M412.286 496.704H415.112V487.236L412.232 489.252L411.53 488.226L415.49 485.4H416.498V496.704H419.27V498H412.286V496.704ZM421.783 491.7C421.783 490.68 421.873 489.768 422.053 488.964C422.233 488.148 422.503 487.464 422.863 486.912C423.223 486.348 423.679 485.922 424.231 485.634C424.783 485.334 425.437 485.184 426.193 485.184C426.997 485.184 427.675 485.328 428.227 485.616C428.791 485.904 429.247 486.324 429.595 486.876C429.943 487.428 430.195 488.112 430.351 488.928C430.507 489.732 430.585 490.656 430.585 491.7C430.585 492.72 430.495 493.638 430.315 494.454C430.135 495.258 429.865 495.942 429.505 496.506C429.145 497.058 428.689 497.484 428.137 497.784C427.585 498.072 426.931 498.216 426.175 498.216C425.383 498.216 424.705 498.06 424.141 497.748C423.589 497.424 423.133 496.974 422.773 496.398C422.425 495.822 422.173 495.138 422.017 494.346C421.861 493.542 421.783 492.66 421.783 491.7ZM429.109 491.7C429.109 491.064 429.073 490.458 429.001 489.882L423.655 494.76C423.859 495.444 424.165 495.99 424.573 496.398C424.981 496.806 425.515 497.01 426.175 497.01C427.231 497.01 427.981 496.572 428.425 495.696C428.881 494.82 429.109 493.488 429.109 491.7ZM423.277 491.7C423.277 492 423.283 492.288 423.295 492.564C423.319 492.84 423.343 493.11 423.367 493.374L428.731 488.514C428.527 487.866 428.221 487.35 427.813 486.966C427.417 486.582 426.877 486.39 426.193 486.39C425.125 486.39 424.369 486.834 423.925 487.722C423.493 488.598 423.277 489.924 423.277 491.7Z" fill="#FFF0DA"></path> <path d="M324.44 466.064H324.32L324.464 468.056V476H321.344V459.2H324.224L330.032 469.472H330.152L329.936 467.456V459.2H333.056V476H330.176L324.44 466.064ZM342.311 464H346.775V472.352C346.775 472.688 346.775 473.024 346.775 473.36H348.599V476H344.807L344.255 474.224H344.159C343.791 474.832 343.239 475.336 342.503 475.736C341.767 476.136 340.951 476.336 340.055 476.336C339.447 476.336 338.887 476.256 338.375 476.096C337.879 475.936 337.455 475.672 337.103 475.304C336.751 474.936 336.479 474.44 336.287 473.816C336.095 473.192 335.999 472.408 335.999 471.464V466.64H334.631V464H339.119V470.816C339.119 471.792 339.271 472.496 339.575 472.928C339.895 473.36 340.391 473.576 341.063 473.576C341.655 473.576 342.183 473.4 342.647 473.048C343.127 472.696 343.463 472.264 343.655 471.752V466.64H342.311V464ZM354.565 476V468.656C354.565 468.176 354.533 467.792 354.469 467.504C354.405 467.2 354.317 466.968 354.205 466.808C354.109 466.632 353.981 466.52 353.821 466.472C353.677 466.408 353.525 466.376 353.365 466.376C353.093 466.376 352.837 466.464 352.597 466.64C352.373 466.816 352.221 467.04 352.141 467.312V476H349.261V464H351.541L351.877 465.32H351.949C352.189 464.856 352.541 464.48 353.005 464.192C353.469 463.888 354.013 463.736 354.637 463.736C355.165 463.736 355.669 463.864 356.149 464.12C356.629 464.376 356.957 464.824 357.133 465.464C357.373 464.904 357.741 464.48 358.237 464.192C358.733 463.888 359.269 463.736 359.845 463.736C360.277 463.736 360.661 463.8 360.997 463.928C361.349 464.04 361.653 464.248 361.909 464.552C362.165 464.856 362.357 465.272 362.485 465.8C362.629 466.312 362.701 466.976 362.701 467.792V476H359.821V468.32C359.821 467.6 359.701 467.096 359.461 466.808C359.237 466.52 358.957 466.376 358.621 466.376C358.333 466.376 358.085 466.448 357.877 466.592C357.669 466.72 357.525 466.936 357.445 467.24V476H354.565ZM375.988 474.728C375.78 474.92 375.508 475.112 375.172 475.304C374.852 475.48 374.468 475.648 374.02 475.808C373.588 475.968 373.108 476.096 372.58 476.192C372.052 476.288 371.492 476.336 370.9 476.336C369.876 476.336 368.956 476.192 368.14 475.904C367.34 475.616 366.66 475.2 366.1 474.656C365.54 474.096 365.108 473.432 364.804 472.664C364.516 471.88 364.372 470.992 364.372 470C364.372 468.944 364.54 468.024 364.876 467.24C365.212 466.44 365.668 465.776 366.244 465.248C366.836 464.72 367.524 464.328 368.308 464.072C369.092 463.8 369.94 463.664 370.852 463.664C371.46 463.664 372.084 463.744 372.724 463.904C373.38 464.064 373.98 464.344 374.524 464.744C375.068 465.128 375.508 465.648 375.844 466.304C376.196 466.96 376.372 467.792 376.372 468.8C376.372 469.488 376.292 470.232 376.132 471.032H367.492C367.508 471.544 367.612 471.976 367.804 472.328C368.012 472.68 368.276 472.968 368.596 473.192C368.932 473.416 369.308 473.584 369.724 473.696C370.156 473.792 370.612 473.84 371.092 473.84C372.052 473.84 372.836 473.728 373.444 473.504C374.068 473.28 374.572 473.008 374.956 472.688L375.988 474.728ZM370.804 466.16C370.388 466.16 369.996 466.216 369.628 466.328C369.26 466.44 368.924 466.608 368.62 466.832C368.332 467.04 368.092 467.304 367.9 467.624C367.708 467.944 367.596 468.304 367.564 468.704H373.468C373.468 467.92 373.244 467.304 372.796 466.856C372.364 466.392 371.7 466.16 370.804 466.16ZM378.499 473.36H381.475V466.64H378.499V464H383.898L384.259 465.584H384.355C384.803 465.056 385.315 464.616 385.891 464.264C386.467 463.912 387.139 463.736 387.907 463.736C388.867 463.736 389.619 464.088 390.163 464.792C390.723 465.496 391.003 466.672 391.003 468.32H388.195C388.195 467.744 388.107 467.328 387.931 467.072C387.771 466.8 387.507 466.664 387.139 466.664C386.499 466.664 385.979 466.824 385.579 467.144C385.195 467.464 384.867 467.832 384.595 468.248V473.36H389.803V476H378.499V473.36ZM393.369 473.36H397.593V466.64H393.369V464H400.713V473.36H405.153V476H393.369V473.36ZM397.017 460.736C397.017 460.24 397.201 459.816 397.569 459.464C397.937 459.112 398.449 458.936 399.105 458.936C399.777 458.936 400.313 459.112 400.713 459.464C401.113 459.816 401.313 460.24 401.313 460.736C401.313 461.248 401.113 461.672 400.713 462.008C400.313 462.328 399.777 462.488 399.105 462.488C398.449 462.488 397.937 462.328 397.569 462.008C397.201 461.672 397.017 461.248 397.017 460.736ZM419.448 474.848C418.792 475.344 418.024 475.72 417.144 475.976C416.264 476.216 415.344 476.336 414.384 476.336C413.344 476.336 412.416 476.184 411.6 475.88C410.8 475.576 410.12 475.152 409.56 474.608C409.016 474.048 408.6 473.376 408.312 472.592C408.024 471.808 407.88 470.944 407.88 470C407.88 468.992 408.048 468.096 408.384 467.312C408.72 466.528 409.184 465.864 409.776 465.32C410.384 464.776 411.096 464.368 411.912 464.096C412.728 463.808 413.616 463.664 414.576 463.664C415.472 463.664 416.312 463.768 417.096 463.976C417.88 464.184 418.48 464.384 418.896 464.576V468.8H416.256V466.592C415.76 466.48 415.264 466.424 414.768 466.424C414.32 466.424 413.872 466.496 413.424 466.64C412.992 466.768 412.6 466.984 412.248 467.288C411.912 467.576 411.632 467.944 411.408 468.392C411.2 468.84 411.096 469.376 411.096 470C411.096 470.512 411.184 470.984 411.36 471.416C411.536 471.848 411.784 472.224 412.104 472.544C412.424 472.864 412.816 473.12 413.28 473.312C413.76 473.488 414.288 473.576 414.864 473.576C415.776 473.576 416.52 473.448 417.096 473.192C417.688 472.936 418.128 472.712 418.416 472.52L419.448 474.848ZM430.67 469.16H433.646V476H422.606V459.2H425.894V473.072H430.67V469.16ZM436.541 473.36H440.765V466.64H436.541V464H443.885V473.36H448.325V476H436.541V473.36ZM440.189 460.736C440.189 460.24 440.373 459.816 440.741 459.464C441.109 459.112 441.621 458.936 442.277 458.936C442.949 458.936 443.485 459.112 443.885 459.464C444.285 459.816 444.485 460.24 444.485 460.736C444.485 461.248 444.285 461.672 443.885 462.008C443.485 462.328 442.949 462.488 442.277 462.488C441.621 462.488 441.109 462.328 440.741 462.008C440.373 461.672 440.189 461.248 440.189 460.736ZM452.3 466.64H449.924V464H452.3V461.264L455.42 460.376V464H461.708V466.64H455.42V470.072C455.42 471.304 455.652 472.2 456.116 472.76C456.58 473.304 457.228 473.576 458.06 473.576C458.492 473.576 458.884 473.528 459.236 473.432C459.588 473.32 459.9 473.184 460.172 473.024C460.46 472.864 460.716 472.688 460.94 472.496C461.18 472.304 461.396 472.128 461.588 471.968L463.028 474.128C462.756 474.448 462.412 474.744 461.996 475.016C461.596 475.272 461.156 475.504 460.676 475.712C460.212 475.904 459.724 476.056 459.212 476.168C458.7 476.28 458.196 476.336 457.7 476.336C455.908 476.336 454.556 475.84 453.644 474.848C452.748 473.84 452.3 472.248 452.3 470.072V466.64ZM476.722 474.728C476.514 474.92 476.242 475.112 475.906 475.304C475.586 475.48 475.202 475.648 474.754 475.808C474.322 475.968 473.842 476.096 473.314 476.192C472.786 476.288 472.226 476.336 471.634 476.336C470.61 476.336 469.69 476.192 468.874 475.904C468.074 475.616 467.394 475.2 466.834 474.656C466.274 474.096 465.842 473.432 465.538 472.664C465.25 471.88 465.106 470.992 465.106 470C465.106 468.944 465.274 468.024 465.61 467.24C465.946 466.44 466.402 465.776 466.978 465.248C467.57 464.72 468.258 464.328 469.042 464.072C469.826 463.8 470.674 463.664 471.586 463.664C472.194 463.664 472.818 463.744 473.458 463.904C474.114 464.064 474.714 464.344 475.258 464.744C475.802 465.128 476.242 465.648 476.578 466.304C476.93 466.96 477.106 467.792 477.106 468.8C477.106 469.488 477.026 470.232 476.866 471.032H468.226C468.242 471.544 468.346 471.976 468.538 472.328C468.746 472.68 469.01 472.968 469.33 473.192C469.666 473.416 470.042 473.584 470.458 473.696C470.89 473.792 471.346 473.84 471.826 473.84C472.786 473.84 473.57 473.728 474.178 473.504C474.802 473.28 475.306 473.008 475.69 472.688L476.722 474.728ZM471.538 466.16C471.122 466.16 470.73 466.216 470.362 466.328C469.994 466.44 469.658 466.608 469.354 466.832C469.066 467.04 468.826 467.304 468.634 467.624C468.442 467.944 468.33 468.304 468.298 468.704H474.202C474.202 467.92 473.978 467.304 473.53 466.856C473.098 466.392 472.434 466.16 471.538 466.16ZM479.233 473.36H482.209V466.64H479.233V464H484.633L484.993 465.584H485.089C485.537 465.056 486.049 464.616 486.625 464.264C487.201 463.912 487.873 463.736 488.641 463.736C489.601 463.736 490.353 464.088 490.897 464.792C491.457 465.496 491.737 466.672 491.737 468.32H488.929C488.929 467.744 488.841 467.328 488.665 467.072C488.505 466.8 488.241 466.664 487.873 466.664C487.233 466.664 486.713 466.824 486.313 467.144C485.929 467.464 485.601 467.832 485.329 468.248V473.36H490.537V476H479.233V473.36ZM494.848 464.816C495.488 464.528 496.224 464.28 497.056 464.072C497.904 463.864 498.904 463.76 500.056 463.76C500.888 463.76 501.592 463.864 502.168 464.072C502.76 464.264 503.232 464.544 503.584 464.912C503.952 465.28 504.216 465.72 504.376 466.232C504.536 466.744 504.616 467.32 504.616 467.96C504.616 468.776 504.584 469.472 504.52 470.048C504.472 470.624 504.448 471.136 504.448 471.584C504.448 471.92 504.464 472.296 504.496 472.712C504.528 472.936 504.552 473.152 504.568 473.36H506.128V476H502.144L501.832 474.368H501.712C501.392 474.864 500.936 475.296 500.344 475.664C499.752 476.016 498.952 476.192 497.944 476.192C496.744 476.192 495.792 475.872 495.088 475.232C494.384 474.592 494.032 473.744 494.032 472.688C494.032 472.016 494.152 471.44 494.392 470.96C494.648 470.464 495.008 470.064 495.472 469.76C495.952 469.44 496.52 469.208 497.176 469.064C497.848 468.904 498.592 468.824 499.408 468.824C499.696 468.824 500 468.84 500.32 468.872C500.64 468.904 501.032 468.936 501.496 468.968C501.528 468.808 501.544 468.648 501.544 468.488V468.032C501.544 467.424 501.368 466.992 501.016 466.736C500.664 466.464 500.144 466.328 499.456 466.328C498.64 466.328 497.904 466.432 497.248 466.64C496.592 466.848 496.04 467.056 495.592 467.264L494.848 464.816ZM498.952 473.624C499.72 473.624 500.296 473.488 500.68 473.216C501.064 472.928 501.344 472.624 501.52 472.304V470.864C501.36 470.832 501.12 470.8 500.8 470.768C500.48 470.72 500.136 470.696 499.768 470.696C499.464 470.696 499.16 470.728 498.855 470.792C498.552 470.84 498.28 470.928 498.04 471.056C497.8 471.168 497.608 471.32 497.464 471.512C497.32 471.704 497.248 471.936 497.248 472.208C497.248 472.656 497.376 473.008 497.632 473.264C497.904 473.504 498.344 473.624 498.952 473.624ZM509.166 459.2H514.278V470.288C514.278 471.52 514.43 472.376 514.734 472.856C515.038 473.336 515.526 473.576 516.198 473.576C516.694 473.576 517.102 473.528 517.422 473.432C517.742 473.32 518.062 473.168 518.382 472.976L519.558 475.136C519.286 475.312 519.014 475.48 518.742 475.64C518.47 475.784 518.182 475.904 517.878 476C517.574 476.112 517.238 476.192 516.87 476.24C516.518 476.304 516.118 476.336 515.67 476.336C514.166 476.336 513.038 475.952 512.286 475.184C511.534 474.416 511.158 473.328 511.158 471.92V461.84H509.166V459.2Z" fill="#EDD0FF"></path> <path d="M267.939 206.061C268.525 206.646 269.475 206.646 270.061 206.061L279.607 196.515C280.192 195.929 280.192 194.979 279.607 194.393C279.021 193.808 278.071 193.808 277.485 194.393L269 202.879L260.515 194.393C259.929 193.808 258.979 193.808 258.393 194.393C257.808 194.979 257.808 195.929 258.393 196.515L267.939 206.061ZM267.5 102L267.5 205L270.5 205L270.5 102L267.5 102Z" fill="#F1FDFF"></path> <path d="M165.551 413.589C165.766 414.389 166.588 414.864 167.388 414.65L180.428 411.155C181.228 410.941 181.703 410.119 181.489 409.318C181.274 408.518 180.452 408.043 179.652 408.258L168.061 411.363L164.955 399.772C164.74 398.972 163.918 398.497 163.118 398.712C162.318 398.926 161.843 399.749 162.057 400.549L165.551 413.589ZM217.201 323.25L165.701 412.451L168.299 413.951L219.799 324.75L217.201 323.25Z" fill="#F1FDFF"></path> <path d="M370.112 414.65C370.912 414.864 371.734 414.389 371.949 413.589L375.443 400.549C375.657 399.749 375.182 398.926 374.382 398.712C373.582 398.497 372.76 398.972 372.545 399.772L369.439 411.364L357.848 408.258C357.048 408.043 356.226 408.518 356.011 409.318C355.797 410.119 356.272 410.941 357.072 411.155L370.112 414.65ZM317.701 324.75L369.201 413.951L371.799 412.451L320.299 323.25L317.701 324.75Z" fill="#F1FDFF"></path> </svg> 