<?xml version="1.0" encoding="UTF-8" standalone="no"?><!DOCTYPE svg PUBLIC "-//W3C//DTD SVG 1.1//EN" "http://www.w3.org/Graphics/SVG/1.1/DTD/svg11.dtd"><svg width="100%" height="100%" viewBox="0 0 2084 417" version="1.1" xmlns="http://www.w3.org/2000/svg" xmlns:xlink="http://www.w3.org/1999/xlink" xml:space="preserve" xmlns:serif="http://www.serif.com/" style="fill-rule:evenodd;clip-rule:evenodd;stroke-linejoin:round;stroke-miterlimit:2;"><path d="M-0,51.333l47.083,0l152.959,222.5l-0,-222.5l50.708,0l0,314l-47.083,0l-152.959,-222.5l0,222.5l-50.708,0l-0,-314Z" style="fill:#fff;fill-rule:nonzero;"/><path d="M283.75,250.958c-0,-70.875 45.292,-117.958 113.042,-117.958c67.75,0 110.791,42.167 112.166,109.458c0,5.834 -0.458,12.125 -1.333,18.375l-173.167,0l0,3.125c1.334,39.042 26,64.584 64.167,64.584c29.625,-0 51.125,-14.792 57.875,-40.375l48.458,-0c-8.083,45.291 -46.666,79.833 -103.625,79.833c-72.208,0 -117.541,-46.667 -117.541,-117.083l-0.042,0.041Zm174.958,-25.583c-4.041,-34.083 -27.791,-53.375 -61.458,-53.375c-30.958,0 -57.417,20.625 -61,53.375l122.458,0Z" style="fill:#fff;fill-rule:nonzero;"/><path d="M641.25,133c61,0 96,29.167 96,83.417l0,91.958c0,11.667 4.917,14.792 14.792,14.792l9.875,-0l-0,42.166l-25.584,0c-31.416,0 -42.166,-13.916 -42.166,-36.791c-15.25,23.333 -38.584,39.458 -75.792,39.458c-50.25,0 -85.25,-24.667 -85.25,-67.292c0,-47.083 34.083,-73.583 98.25,-73.583l57.875,0l0,-13.917c0,-25.583 -18.375,-41.25 -50.25,-41.25c-28.708,0 -48,13.459 -51.583,33.625l-47.542,0c4.917,-44.875 43.5,-72.666 101.375,-72.666l0,0.083Zm-16.167,197.375c40.375,0 63.709,-23.792 64.167,-59.208l0,-8.084l-60.125,0c-30.042,0 -46.667,11.209 -46.667,34.542c0,19.292 16.167,32.75 42.625,32.75Z" style="fill:#fff;fill-rule:nonzero;"/><path d="M1050.33,93.958l39.917,0l0,-42.625l-46.208,0c-44.417,0 -64.167,21.542 -64.167,62.792l0,21.542l-69.5,-0c-37.667,-0 -56.083,15.25 -67.75,34.541l-5.375,-34.541l-43.083,-0l-0,229.666l48.458,0l0,-115.291c0,-35.417 13.917,-69.084 56.958,-69.084l80.292,0l0,184.375l48.917,0l-0,-184.375l61.458,0l0,-45.291l-62.333,-0l-0,-19.292c-0,-15.708 6.708,-22.417 22.416,-22.417Z" style="fill:#fff;fill-rule:nonzero;"/><path d="M1213.12,133c69.958,0 117.083,47.542 117.083,117.542c0,70 -47.083,117.541 -117.083,117.541c-70,0 -117.083,-47.083 -117.083,-117.541c-0,-70.459 47.083,-117.542 117.083,-117.542Zm67.75,117.542c0,-44.417 -26.917,-76.25 -67.75,-76.25c-40.833,-0 -67.292,31.833 -67.292,76.25c0,44.416 26.459,76.25 67.292,76.25c40.833,-0 67.75,-31.834 67.75,-76.25Z" style="fill:#fff;fill-rule:nonzero;"/><path d="M1404.71,135.667l5.375,34.541c11.667,-19.291 30.042,-34.541 67.75,-34.541l10.75,-0l0,45.291l-21.541,0c-43.084,0 -56.959,33.625 -56.959,69.084l0,115.291l-48.458,0l0,-229.666l43.083,-0Z" style="fill:#fff;fill-rule:nonzero;"/><path d="M1518.21,135.667l42.167,-0l5.375,30.041c13,-17.041 32.75,-32.291 67.292,-32.75c30.041,0 56.958,12.125 70.875,41.709c14.791,-25.125 40.833,-41.709 78.5,-41.709c47.541,0 86.125,27.375 86.125,100.042l-0,132.333l-48.459,0l0,-129.208c0,-40.375 -16.583,-61.458 -48,-61.458c-33.208,-0 -54.291,25.125 -54.291,66.375l-0,124.25l-48.917,-0l0,-129.209c0,-40.375 -16.583,-61.458 -48.458,-61.458c-31.875,-0 -53.834,26.917 -53.834,67.75l0,122.917l-48.458,-0l0,-229.667l0.083,0.042Z" style="fill:#fff;fill-rule:nonzero;"/><rect x="1894.62" y="365.333" width="188.708" height="46.208" style="fill:#fff;fill-rule:nonzero;"/></svg>