<?xml version="1.0" encoding="UTF-8" standalone="no"?><!DOCTYPE svg PUBLIC "-//W3C//DTD SVG 1.1//EN" "http://www.w3.org/Graphics/SVG/1.1/DTD/svg11.dtd"><svg width="100%" height="100%" viewBox="0 0 779 847" version="1.1" xmlns="http://www.w3.org/2000/svg" xmlns:xlink="http://www.w3.org/1999/xlink" xml:space="preserve" xmlns:serif="http://www.serif.com/" style="fill-rule:evenodd;clip-rule:evenodd;stroke-linejoin:round;stroke-miterlimit:2;"><path d="M646.087,4.118l-151.791,-0c-11.984,-0 -21.775,9.8 -21.775,21.783l-0,185.887l-119.159,-156.475c-24.562,-32.258 -62.787,-51.195 -103.337,-51.195l-117.788,-0c-39.041,-0 -70.687,31.654 -70.687,70.695l-0,464.455c-0,39.045 31.646,70.695 70.687,70.695l152.209,0c12.029,0 21.783,-9.75 21.783,-21.783l-0,-187.829l118.517,157.75c24.533,32.654 62.995,51.862 103.841,51.862l117.5,0c39.046,0 70.7,-31.65 70.7,-70.695l0,-464.455c0,-39.041 -31.654,-70.695 -70.7,-70.695m-381.308,561.933l-133.017,-0c-15.437,-0 -27.95,-12.508 -27.95,-27.95l0,-402.125l160.967,211.662l-0,218.413Zm383.808,-0l-120.479,-0c-27.117,-0 -52.692,-12.621 -69.179,-34.146l-345.108,-450.579c-10.563,-13.796 -0.73,-33.709 16.641,-33.709l120.034,0c27.1,0 52.641,12.609 69.137,34.109l345.588,450.612c10.57,13.788 0.741,33.713 -16.634,33.713m26.342,-89.583l-160.971,-210.826l0,-218.024l133.025,-0c15.433,-0 27.946,12.516 27.946,27.949l-0,400.901Z"/><path d="M117.413,839.835l-23.708,0l-59.017,-67.516l0,67.516l-30.583,0l-0,-123.083l23.35,0l59.371,69.325l-0,-69.325l30.587,0l0,123.083Z"/><path d="M212.88,803.997l-0.166,0.542l-62.284,0c2.359,7.963 8.509,14.117 19.734,14.117c6.158,-0 10.858,-2.354 13.391,-6.334l28.963,0c-4.163,18.1 -20.996,29.5 -42.717,29.5c-28.779,0 -47.967,-19.183 -47.967,-45.97c0,-26.609 18.642,-45.796 46.7,-45.796c25.521,-0 44.888,17.558 44.888,43.983c-0,3.258 -0,6.7 -0.542,9.958m-62.808,-16.654l35.837,0c-1.629,-9.596 -7.962,-14.662 -17.375,-14.662c-9.954,-0 -16.291,5.796 -18.462,14.662"/><path d="M313.56,839.833l-29.325,0l-0,-4.887c-6.521,4.162 -14.488,6.7 -24.075,6.7c-23.709,-0 -43.621,-19.734 -43.621,-45.796c-0,-26.246 19.912,-45.796 43.621,-45.796c9.587,0 17.554,2.538 24.075,6.7l-0,-4.704l29.325,-0l-0,87.783Zm-29.325,-30.408l-0,-27.15c-5.429,-6.338 -11.767,-8.325 -18.284,-8.325c-11.945,-0 -20.633,9.775 -20.633,21.9c0,12.125 8.688,21.721 20.633,21.721c6.517,-0 12.855,-1.809 18.284,-8.146"/><path d="M379.905,778.475c-14.304,0.541 -23.35,4.341 -30.225,11.22l-0,50.138l-29.325,-0l-0,-87.783l29.325,-0l-0,9.412c7.779,-6.7 17.196,-10.867 30.225,-10.867l-0,27.88Z"/><path d="M475.824,743.723l-0,-26.966l-91.792,-0l-0,123.091l30.6,0l-0,-43.446l45.9,0l-0,-0.537c-0,-9.696 2.358,-18.55 6.562,-26.088l-52.462,0l-0,-26.054l61.192,0Z"/><path d="M623.622,778.475c-14.304,0.541 -23.35,4.341 -30.229,11.22l0,50.138l-29.321,-0l0,-87.783l29.321,-0l0,9.412c7.783,-6.7 17.196,-10.867 30.229,-10.867l0,27.88Z"/><path d="M774.229,789.699l-0,50.138l-29.505,-0l0,-45.434c0,-12.487 -5.983,-18.462 -15.75,-18.462c-4.525,-0 -9.05,1.987 -13.391,7.242c0.179,2.17 0.362,4.341 0.362,6.516l0,50.138l-29.325,-0l0,-45.434c0,-12.487 -6.154,-18.462 -15.754,-18.462c-4.525,-0 -8.871,2.175 -13.217,7.783l0,56.113l-29.32,-0l-0,-87.788l29.32,0l0,5.25c5.98,-5.071 12.138,-7.966 21.905,-7.966c11.05,-0 20.458,4.166 26.975,11.766c9.233,-8.146 18.104,-11.766 31.137,-11.766c20.996,-0 36.563,15.387 36.563,40.366"/><path d="M560.455,795.849c0,26.788 -19.904,46.7 -47.6,46.7c-27.691,0 -47.604,-19.912 -47.604,-46.7c0,-26.425 19.913,-45.796 47.604,-45.796c27.696,0 47.6,19.371 47.6,45.796m-27.691,0.179c-0,-11.4 -7.963,-20.633 -19.73,-20.633c-11.95,0 -19.908,9.233 -19.908,20.633c0,11.767 7.958,21.179 19.908,21.179c11.767,0 19.73,-9.412 19.73,-21.179"/></svg>