<?xml version="1.0" encoding="UTF-8" standalone="no"?><!DOCTYPE svg PUBLIC "-//W3C//DTD SVG 1.1//EN" "http://www.w3.org/Graphics/SVG/1.1/DTD/svg11.dtd"><svg width="100%" height="100%" viewBox="0 0 1361 207" version="1.1" xmlns="http://www.w3.org/2000/svg" xmlns:xlink="http://www.w3.org/1999/xlink" xml:space="preserve" xmlns:serif="http://www.serif.com/" style="fill-rule:evenodd;clip-rule:evenodd;stroke-linejoin:round;stroke-miterlimit:2;"><path d="M194.911,4.238l-49.55,-0c-3.913,-0 -7.113,3.199 -7.113,7.112l0,60.679l-38.896,-51.079c-8.021,-10.529 -20.5,-16.712 -33.733,-16.712l-38.45,-0c-12.746,-0 -23.079,10.337 -23.079,23.079l-0,151.616c-0,12.746 10.333,23.079 23.079,23.079l49.683,0c3.929,0 7.113,-3.183 7.113,-7.112l-0,-61.313l38.687,51.496c8.013,10.659 20.567,16.929 33.9,16.929l38.359,0c12.745,0 23.075,-10.333 23.075,-23.079l-0,-151.616c-0,-12.742 -10.33,-23.08 -23.075,-23.08m-124.475,183.442l-43.425,0c-5.038,0 -9.125,-4.083 -9.125,-9.125l-0,-131.271l52.55,69.096l-0,71.3Zm125.291,0l-39.333,0c-8.85,0 -17.196,-4.121 -22.579,-11.15l-112.659,-147.087c-3.45,-4.505 -0.241,-11.005 5.434,-11.005l39.183,0c8.846,0 17.188,4.117 22.571,11.138l112.812,147.096c3.45,4.504 0.242,11.008 -5.429,11.008m8.596,-29.246l-52.546,-68.821l0,-71.175l43.425,0c5.038,0 9.121,4.088 9.121,9.125l0,130.871Z"/><path d="M482.415,185.048l-31.563,-0l-78.554,-89.875l0,89.875l-40.717,-0l0,-163.846l31.084,0l79.029,92.283l-0,-92.283l40.721,0l-0,163.846Z"/><path d="M609.498,137.343l-0.221,0.725l-82.908,-0c3.137,10.604 11.325,18.792 26.262,18.792c8.192,-0 14.459,-3.134 17.834,-8.434l38.55,0c-5.542,24.096 -27.95,39.271 -56.867,39.271c-38.308,0 -63.846,-25.537 -63.846,-61.2c0,-35.417 24.817,-60.954 62.163,-60.954c33.971,-0 59.754,23.367 59.754,58.546c-0,4.337 -0,8.916 -0.721,13.254m-83.608,-22.163l47.704,0c-2.167,-12.775 -10.6,-19.525 -23.129,-19.525c-13.259,0 -21.684,7.721 -24.575,19.525"/><path d="M743.515,185.048l-39.033,-0l-0,-6.508c-8.675,5.545 -19.275,8.916 -32.05,8.916c-31.563,0 -58.063,-26.266 -58.063,-60.958c0,-34.938 26.5,-60.963 58.063,-60.963c12.775,0 23.375,3.375 32.05,8.917l-0,-6.262l39.033,-0l0,116.858Zm-39.033,-40.483l-0,-36.138c-7.229,-8.433 -15.667,-11.083 -24.338,-11.083c-15.904,-0 -27.47,13.012 -27.47,29.154c-0,16.142 11.566,28.917 27.47,28.917c8.671,-0 17.109,-2.413 24.338,-10.85"/><path d="M831.833,103.371c-19.029,0.721 -31.083,5.779 -40.237,14.937l-0,66.742l-39.03,0l0,-116.854l39.03,-0l-0,12.521c10.362,-8.917 22.887,-14.459 40.237,-14.459l0,37.113Z"/><path d="M959.514,57.11l0,-35.895l-122.187,-0l-0,163.85l40.742,-0l-0,-57.834l61.095,0l0,-0.712c0,-12.909 3.134,-24.696 8.734,-34.725l-69.829,-0l-0,-34.684l81.445,0Z"/><path d="M1156.26,103.371c-19.034,0.721 -31.08,5.779 -40.238,14.937l0,66.742l-39.033,0l-0,-116.854l39.033,-0l0,12.521c10.363,-8.917 22.888,-14.459 40.238,-14.459l-0,37.113Z"/><path d="M1356.74,118.308l-0,66.746l-39.28,0l0,-60.483c0,-16.625 -7.95,-24.575 -20.962,-24.575c-6.025,-0 -12.046,2.646 -17.829,9.637c0.241,2.888 0.483,5.784 0.483,8.675l0,66.746l-39.033,0l-0,-60.483c-0,-16.625 -8.192,-24.575 -20.963,-24.575c-6.021,-0 -11.808,2.891 -17.591,10.362l-0,74.696l-39.03,0l0,-116.858l39.03,-0l-0,6.983c7.954,-6.746 16.141,-10.6 29.158,-10.6c14.696,0 27.225,5.546 35.9,15.658c12.287,-10.845 24.092,-15.658 41.442,-15.658c27.95,0 48.675,20.483 48.675,53.729"/><path d="M1072.19,126.499c-0,35.658 -26.505,62.167 -63.371,62.167c-36.867,-0 -63.367,-26.509 -63.367,-62.167c0,-35.179 26.5,-60.962 63.367,-60.962c36.866,-0 63.371,25.783 63.371,60.962m-36.871,0.238c-0,-15.175 -10.6,-27.463 -26.259,-27.463c-15.904,0 -26.508,12.288 -26.508,27.463c0,15.662 10.604,28.195 26.508,28.195c15.659,0 26.259,-12.533 26.259,-28.195"/></svg>