<?xml version="1.0" encoding="UTF-8" standalone="no"?><!DOCTYPE svg PUBLIC "-//W3C//DTD SVG 1.1//EN" "http://www.w3.org/Graphics/SVG/1.1/DTD/svg11.dtd"><svg width="100%" height="100%" viewBox="0 0 664 615" version="1.1" xmlns="http://www.w3.org/2000/svg" xmlns:xlink="http://www.w3.org/1999/xlink" xml:space="preserve" xmlns:serif="http://www.serif.com/" style="fill-rule:evenodd;clip-rule:evenodd;stroke-linejoin:round;stroke-miterlimit:2;"><path d="M588.794,4.16l-151.792,0c-11.983,0 -21.775,9.8 -21.775,21.784l0,185.887l-119.158,-156.475c-24.563,-32.258 -62.788,-51.196 -103.338,-51.196l-117.787,0c-39.042,0 -70.688,31.655 -70.688,70.696l0,464.454c0,39.046 31.646,70.696 70.688,70.696l152.208,0c12.029,0 21.783,-9.75 21.783,-21.783l0,-187.829l118.517,157.75c24.533,32.654 62.996,51.862 103.842,51.862l117.5,0c39.046,0 70.7,-31.65 70.7,-70.696l-0,-464.454c-0,-39.041 -31.654,-70.696 -70.7,-70.696m-381.309,561.934l-133.016,-0c-15.438,-0 -27.95,-12.509 -27.95,-27.95l-0,-402.125l160.966,211.662l0,218.413Zm383.809,-0l-120.479,-0c-27.117,-0 -52.692,-12.621 -69.18,-34.146l-345.108,-450.579c-10.562,-13.796 -0.729,-33.709 16.642,-33.709l120.033,0c27.1,0 52.642,12.609 69.138,34.109l345.587,450.612c10.571,13.788 0.742,33.713 -16.633,33.713m26.341,-89.584l-160.97,-210.825l-0,-218.025l133.025,0c15.433,0 27.945,12.517 27.945,27.95l0,400.9Z"/></svg>