<svg width="34" height="34" viewBox="0 0 34 34" fill="none" xmlns="http://www.w3.org/2000/svg">
<g opacity="0.8">
<path d="M33.9049 9.99039C33.8233 8.18014 33.5308 6.94155 33.1159 5.85949C32.6806 4.7434 32.1025 3.79063 31.1571 2.85148C30.2117 1.91233 29.2664 1.32026 28.1509 0.891513C27.0695 0.469576 25.8317 0.183747 24.0225 0.102082C22.2065 0.0204163 21.6284 0 17.0171 0C12.399 0 11.8209 0.0204163 10.0117 0.102082C8.20254 0.183747 6.9647 0.476381 5.88328 0.891513C4.76106 1.32706 3.80887 1.90552 2.87028 2.85148C1.93169 3.79744 1.33997 4.7434 0.911486 5.85949C0.496603 6.94155 0.204145 8.18014 0.122528 9.99039C0.0409119 11.8074 0.0205078 12.3859 0.0205078 17C0.0205078 21.6209 0.0409119 22.1994 0.122528 24.0096C0.204145 25.8199 0.496603 27.0584 0.911486 28.1405C1.34677 29.2566 1.92489 30.2094 2.87028 31.1485C3.80887 32.0945 4.76106 32.6797 5.87648 33.1085C6.95789 33.5304 8.19574 33.8163 10.0049 33.8979C11.8209 33.9796 12.399 34 17.0103 34C21.6284 34 22.2065 33.9796 24.0157 33.8979C25.8249 33.8163 27.0627 33.5236 28.1441 33.1085C29.2596 32.6729 30.2117 32.0945 31.1503 31.1485C32.0889 30.2026 32.6806 29.2566 33.1091 28.1405C33.5308 27.0584 33.8165 25.8199 33.8981 24.0096C33.9797 22.1926 34.0001 21.6141 34.0001 17C34.0001 12.3859 33.9865 11.8006 33.9049 9.99039ZM30.8511 23.8735C30.7763 25.534 30.4974 26.4392 30.2662 27.0312C29.9601 27.8207 29.586 28.3923 28.9875 28.9912C28.389 29.5901 27.8245 29.9508 27.0287 30.2706C26.4302 30.502 25.5256 30.781 23.8729 30.8559C22.0841 30.9376 21.5468 30.958 17.0035 30.958C12.4602 30.958 11.9229 30.9376 10.1341 30.8559C8.4746 30.781 7.57002 30.502 6.9783 30.2706C6.18934 29.9644 5.61803 29.5901 5.01951 28.9912C4.42099 28.3923 4.06052 27.8275 3.74085 27.0312C3.50961 26.4323 3.23075 25.5272 3.15593 23.8735C3.07432 22.0837 3.05391 21.546 3.05391 17C3.05391 12.454 3.07432 11.9163 3.15593 10.1265C3.23075 8.46597 3.50961 7.56085 3.74085 6.96878C4.04691 6.17934 4.42099 5.60769 5.01951 5.00881C5.61803 4.40993 6.18254 4.04924 6.9783 3.72938C7.57682 3.498 8.4814 3.21898 10.1341 3.14412C11.9229 3.06245 12.4602 3.04203 17.0035 3.04203C21.5468 3.04203 22.0841 3.06245 23.8729 3.14412C25.5324 3.21898 26.437 3.498 27.0287 3.72938C27.8177 4.03563 28.389 4.40993 28.9875 5.00881C29.586 5.60769 29.9465 6.17254 30.2662 6.96878C30.4974 7.56765 30.7763 8.47278 30.8511 10.1265C30.9327 11.9163 30.9531 12.454 30.9531 17C30.9531 21.546 30.9259 22.0837 30.8511 23.8735Z" fill="white"/>
<path d="M17.0035 8.26178C12.1745 8.26178 8.27051 12.1749 8.27051 17C8.27051 21.8318 12.1813 25.7382 17.0035 25.7382C21.8256 25.7382 25.7364 21.8182 25.7364 17C25.7364 12.1681 21.8324 8.26178 17.0035 8.26178ZM17.0035 22.6689C13.8748 22.6689 11.3379 20.1305 11.3379 17C11.3379 13.8695 13.8748 11.331 17.0035 11.331C20.1321 11.331 22.669 13.8695 22.669 17C22.669 20.1305 20.1321 22.6689 17.0035 22.6689Z" fill="white"/>
<path d="M26.0765 9.96315C27.2034 9.96315 28.1169 9.04908 28.1169 7.92152C28.1169 6.79395 27.2034 5.87988 26.0765 5.87988C24.9497 5.87988 24.0361 6.79395 24.0361 7.92152C24.0361 9.04908 24.9497 9.96315 26.0765 9.96315Z" fill="white"/>
<path d="M0 17C0 21.6209 0.0204041 22.1994 0.10202 24.0096C0.183637 25.8199 0.476095 27.0584 0.890978 28.1405C1.32627 29.2566 1.90438 30.2094 2.84977 31.1485C3.78836 32.0877 4.74055 32.6797 5.85597 33.1085C6.93739 33.5304 8.17524 33.8163 9.9844 33.8979C11.8004 33.9796 12.3785 34 16.9898 34C21.6079 34 22.186 33.9796 23.9952 33.8979C25.8044 33.8163 27.0422 33.5236 28.1236 33.1085C29.239 32.6729 30.1912 32.0945 31.1298 31.1485C32.0684 30.2094 32.6601 29.2566 33.0886 28.1405C33.5103 27.0584 33.796 25.8199 33.8776 24.0096C33.9592 22.1926 33.9796 21.6141 33.9796 17C33.9796 12.3791 33.9592 11.8006 33.8776 9.99039C33.796 8.18014 33.5035 6.94155 33.0886 5.85949C32.6533 4.7434 32.0752 3.79063 31.1298 2.85148C30.198 1.90552 29.2458 1.32026 28.1304 0.891513C27.049 0.469576 25.8112 0.183747 24.002 0.102082C22.186 0.0204163 21.6079 0 16.9966 0C12.3785 0 11.8004 0.0204163 9.9912 0.102082C8.18204 0.183747 6.94419 0.476381 5.86277 0.891513C4.74735 1.32706 3.79516 1.90552 2.85657 2.85148C1.91798 3.79744 1.32627 4.7434 0.89778 5.85949C0.476095 6.94155 0.183637 8.18014 0.10202 9.99039C0.0204041 11.8006 0 12.3791 0 17ZM3.06741 17C3.06741 12.4608 3.08782 11.9163 3.16943 10.1265C3.24425 8.46597 3.5231 7.56085 3.75435 6.96878C4.06041 6.17934 4.43449 5.60769 5.03301 5.00881C5.63153 4.40993 6.19604 4.04924 6.9918 3.72938C7.59032 3.498 8.4949 3.21898 10.1476 3.14412C11.9364 3.06245 12.4737 3.04203 17.017 3.04203C21.5603 3.04203 22.0976 3.06245 23.8864 3.14412C25.5459 3.21898 26.4505 3.498 27.0422 3.72938C27.8312 4.03563 28.4025 4.40993 29.001 5.00881C29.5995 5.60769 29.96 6.17254 30.2797 6.96878C30.5109 7.56765 30.7898 8.47278 30.8646 10.1265C30.9462 11.9163 30.9666 12.454 30.9666 17C30.9666 21.546 30.9462 22.0837 30.8646 23.8735C30.7898 25.534 30.5109 26.4392 30.2797 27.0312C29.9736 27.8207 29.5995 28.3923 29.001 28.9912C28.4025 29.5901 27.838 29.9508 27.0422 30.2706C26.4437 30.502 25.5391 30.781 23.8864 30.8559C22.0976 30.9376 21.5603 30.958 17.017 30.958C12.4737 30.958 11.9364 30.9376 10.1476 30.8559C8.4881 30.781 7.58352 30.502 6.9918 30.2706C6.20284 29.9644 5.63153 29.5901 5.03301 28.9912C4.43449 28.3923 4.07401 27.8275 3.75435 27.0312C3.5231 26.4323 3.24425 25.5272 3.16943 23.8735C3.08102 22.0837 3.06741 21.5392 3.06741 17Z" fill="white"/>
</g>
</svg>
