<?xml version="1.0" encoding="UTF-8" standalone="no"?>
<!DOCTYPE svg PUBLIC "-//W3C//DTD SVG 1.1//EN" "http://www.w3.org/Graphics/SVG/1.1/DTD/svg11.dtd">
<svg width="100%" height="100%" viewBox="0 0 301 74" version="1.1" xmlns="http://www.w3.org/2000/svg" xmlns:xlink="http://www.w3.org/1999/xlink" xml:space="preserve" xmlns:serif="http://www.serif.com/" style="fill-rule:evenodd;clip-rule:evenodd;stroke-linejoin:round;stroke-miterlimit:2;">
    <g transform="matrix(1,0,0,1,-117.257,-256.106)">
        <path d="M397.589,309.289C403.047,309.289 408.132,307.067 408.939,303.611C409.187,305.833 410.427,307.499 412.226,308.363C413.838,309.165 415.823,309.289 417.746,308.548L417.746,302.994C416.939,303.179 416.071,303.241 415.389,302.686C414.707,302.13 414.21,300.896 414.21,298.613L414.21,287.69C414.21,280.963 409.125,276.766 400.256,276.766C392.565,276.766 386.735,279.914 385.991,284.666L391.945,286.394C392.441,283.987 395.356,282.321 399.884,282.321C404.225,282.321 407.636,283.74 407.636,286.085C407.636,288.307 404.535,289.356 396.845,289.911C389.526,290.467 385.061,293.984 385.061,299.662C385.061,305.277 389.464,309.289 397.589,309.289ZM397.589,303.796C393.93,303.796 391.697,302.254 391.697,299.723C391.697,297.317 393.805,295.65 397.217,295.404C402.985,295.033 406.52,294.354 407.698,292.997C407.698,299.538 403.481,303.796 397.589,303.796Z" style="fill:rgb(191,109,243);fill-rule:nonzero;"/>
    </g>
    <g transform="matrix(1,0,0,1,-117.257,-256.106)">
        <path d="M366.289,276.972C361.479,276.972 357.132,279.229 354.988,282.701C353.307,279.055 349.482,277.03 345.367,276.972C341.252,276.972 337.775,279.055 335.92,282.354L335.92,277.84L329.661,277.84L329.661,308.487L336.036,308.487L336.036,291.728C336.036,286.404 339.282,282.932 343.918,282.932C348.323,282.932 351.105,286.173 351.105,291.555L351.105,308.487L357.48,308.487L357.48,291.612C357.48,286.347 360.667,282.932 365.304,282.932C369.651,282.932 372.432,285.942 372.432,291.439L372.432,308.487L378.807,308.487L378.807,290.397C378.807,286.289 377.648,282.99 375.33,280.618C373.07,278.187 370.056,276.972 366.289,276.972Z" style="fill:rgb(191,109,243);fill-rule:nonzero;"/>
    </g>
    <g transform="matrix(1,0,0,1,-117.257,-256.106)">
        <path d="M222.633,309.289C232.556,309.289 239.254,302.624 239.254,292.812C239.254,283.061 232.68,276.828 222.633,276.828C212.585,276.828 205.949,283.123 205.949,292.812C205.949,302.624 212.772,309.289 222.633,309.289ZM222.633,303.364C216.679,303.364 212.585,298.983 212.585,292.812C212.585,286.702 216.555,282.753 222.633,282.753C228.773,282.753 232.618,286.702 232.618,292.812C232.618,299.045 228.587,303.364 222.633,303.364Z" style="fill:rgb(191,109,243);fill-rule:nonzero;"/>
    </g>
    <g transform="matrix(1,0,0,1,-117.257,-256.106)">
        <path d="M268.579,276.766C263.431,276.766 259.028,278.865 256.299,282.382L256.299,277.198L246.871,277.198L246.871,282.567L256.175,282.567C254.314,285.036 253.26,288.183 253.26,291.824L253.26,303.118L247.057,303.118L247.057,308.487L268.021,308.487L268.021,303.118L259.958,303.118L259.958,291.639C259.958,286.702 263.741,282.999 268.579,282.999C272.486,282.999 275.029,285.53 275.773,288.677L281.851,286.517C280.549,280.654 275.587,276.766 268.579,276.766Z" style="fill:rgb(191,109,243);fill-rule:nonzero;"/>
    </g>
    <g transform="matrix(1,0,0,1,-117.257,-256.106)">
        <path d="M301.527,309.289C306.985,309.289 312.071,307.067 312.877,303.611C313.125,305.833 314.366,307.499 316.164,308.363C317.777,309.165 319.762,309.289 321.684,308.548L321.684,302.994C320.878,303.179 320.01,303.241 319.327,302.686C318.645,302.13 318.149,300.896 318.149,298.613L318.149,287.69C318.149,280.963 313.063,276.766 304.194,276.766C296.504,276.766 290.674,279.914 289.929,284.666L295.883,286.394C296.38,283.987 299.295,282.321 303.822,282.321C308.164,282.321 311.575,283.74 311.575,286.085C311.575,288.307 308.474,289.356 300.783,289.911C293.465,290.467 288.999,293.984 288.999,299.662C288.999,305.277 293.403,309.289 301.527,309.289ZM301.527,303.796C297.868,303.796 295.635,302.254 295.635,299.723C295.635,297.317 297.744,295.65 301.155,295.404C306.923,295.033 310.458,294.354 311.637,292.997C311.637,299.538 307.419,303.796 301.527,303.796Z" style="fill:rgb(191,109,243);fill-rule:nonzero;"/>
    </g>
    <g transform="matrix(1,0,0,1,-117.257,-256.106)">
        <path d="M183.03,270.023C182.474,269.277 181.89,268.554 181.279,267.855L181.312,268.745L181.928,270.064L183.03,270.023Z" style="fill:rgb(251,129,184);fill-rule:nonzero;"/>
        <path d="M154.684,274.951C157.39,272.56 161.131,271.352 164.746,271.518C166.811,271.613 168.664,272.14 170.189,273.013C171.506,273.716 172.828,275.006 173.917,276.515C175.836,278.182 178.721,278.388 180.885,276.851C183.415,275.054 184.003,271.557 182.197,269.039C178.105,263.332 171.608,260.619 165.265,260.328C158.931,260.037 152.222,262.111 147.142,266.635C147.125,266.65 147.108,266.665 147.092,266.68C137.031,275.677 136.174,291.095 145.205,301.137C147.278,303.442 150.837,303.638 153.153,301.576C155.47,299.513 155.667,295.972 153.594,293.667C148.699,288.225 149.17,279.858 154.642,274.989C154.656,274.976 154.67,274.964 154.684,274.951Z" style="fill:url(#_Linear1);"/>
        <path d="M137.536,266.099C139.608,268.405 139.41,271.946 137.092,274.008C126.5,283.433 125.592,299.615 135.065,310.156C137.137,312.462 136.938,316.003 134.621,318.065C132.303,320.127 128.745,319.929 126.673,317.623C113.057,302.471 114.361,279.207 129.588,265.658C131.906,263.596 135.464,263.794 137.536,266.099Z" style="fill:url(#_Linear2);"/>
        <path d="M127.117,309.715C129.434,307.653 132.993,307.85 135.065,310.156C144.537,320.697 160.799,321.6 171.393,312.174C173.71,310.112 177.268,310.31 179.34,312.616C181.412,314.921 181.214,318.462 178.896,320.524C163.669,334.073 140.29,332.776 126.673,317.623C124.601,315.317 124.8,311.777 127.117,309.715Z" style="fill:url(#_Linear3);"/>
        <path d="M177.871,272.067C180.557,270.509 184.003,271.413 185.569,274.086C194.106,288.662 192.407,308.503 178.902,320.523C176.585,322.585 173.026,322.388 170.954,320.082C168.881,317.776 169.08,314.236 171.397,312.174C180.481,304.088 181.993,290.228 175.842,279.726C174.277,277.053 175.186,273.624 177.871,272.067Z" style="fill:url(#_Linear4);"/>
        <path d="M179.003,265.552L180.649,267.364L182.299,269.176C182.259,269.116 182.215,269.053 182.169,268.988L182.321,269.15C182.253,269.06 182.127,268.904 181.96,268.703C181.206,267.708 180.006,266.414 179.003,265.552Z" style="fill:rgb(249,124,191);"/>
        <path d="M145.653,293.227C147.97,291.165 151.528,291.363 153.6,293.669C158.494,299.114 166.902,299.582 172.371,294.712C174.688,292.649 178.246,292.845 180.319,295.15C182.392,297.455 182.195,300.996 179.878,303.059C169.771,312.06 154.244,311.19 145.209,301.136C143.137,298.83 143.335,295.289 145.653,293.227Z" style="fill:url(#_Linear5);"/>
        <path d="M181.81,268.557C179.737,266.252 176.179,266.055 173.862,268.118C171.856,269.905 171.439,272.799 172.71,275.04C173.409,275.791 174.058,276.655 174.613,277.563C178.191,282.947 177.353,290.274 172.373,294.705C170.056,296.767 169.857,300.308 171.929,302.614C174.002,304.919 177.56,305.117 179.877,303.055C189.982,294.064 190.856,278.614 181.81,268.557Z" style="fill:url(#_Linear6);"/>
        <path d="M172.24,274.559C164.3,265.319 147.634,264.633 137.093,274.013C134.775,276.075 131.217,275.878 129.145,273.572C127.073,271.266 127.271,267.725 129.589,265.663C144.48,252.413 169.928,252.413 182.153,268.983C183.993,271.477 183.453,274.982 180.947,276.812C178.786,278.391 175.868,278.209 173.927,276.529C173.409,275.81 172.838,275.14 172.24,274.559Z" style="fill:url(#_Linear7);"/>
    </g>
    <defs>
        <linearGradient id="_Linear1" x1="0" y1="0" x2="1" y2="0" gradientUnits="userSpaceOnUse" gradientTransform="matrix(3.757,-24.275,24.275,3.757,147.817,293.174)"><stop offset="0" style="stop-color:rgb(246,210,91);stop-opacity:1"/><stop offset="1" style="stop-color:rgb(248,181,128);stop-opacity:1"/></linearGradient>
        <linearGradient id="_Linear2" x1="0" y1="0" x2="1" y2="0" gradientUnits="userSpaceOnUse" gradientTransform="matrix(2.678,39.389,-39.389,2.678,128.113,269.833)"><stop offset="0" style="stop-color:rgb(237,81,242);stop-opacity:1"/><stop offset="1" style="stop-color:rgb(183,113,242);stop-opacity:1"/></linearGradient>
        <linearGradient id="_Linear3" x1="0" y1="0" x2="1" y2="0" gradientUnits="userSpaceOnUse" gradientTransform="matrix(41.971,2.54,-2.54,41.971,128.034,311.511)"><stop offset="0" style="stop-color:rgb(185,113,243);stop-opacity:1"/><stop offset="1" style="stop-color:rgb(143,111,222);stop-opacity:1"/></linearGradient>
        <linearGradient id="_Linear4" x1="0" y1="0" x2="1" y2="0" gradientUnits="userSpaceOnUse" gradientTransform="matrix(-6.438,38.29,-38.29,-6.438,180.336,280.19)"><stop offset="0" style="stop-color:rgb(106,75,178);stop-opacity:1"/><stop offset="1" style="stop-color:rgb(145,112,224);stop-opacity:1"/></linearGradient>
        <linearGradient id="_Linear5" x1="0" y1="0" x2="1" y2="0" gradientUnits="userSpaceOnUse" gradientTransform="matrix(19.226,5.443,-5.443,19.226,150.798,293.444)"><stop offset="0" style="stop-color:rgb(246,210,91);stop-opacity:1"/><stop offset="1" style="stop-color:rgb(249,163,143);stop-opacity:1"/></linearGradient>
        <linearGradient id="_Linear6" x1="0" y1="0" x2="1" y2="0" gradientUnits="userSpaceOnUse" gradientTransform="matrix(0.801,20.388,-20.388,0.801,178.471,278.492)"><stop offset="0" style="stop-color:rgb(250,128,183);stop-opacity:1"/><stop offset="1" style="stop-color:rgb(248,164,141);stop-opacity:1"/></linearGradient>
        <linearGradient id="_Linear7" x1="0" y1="0" x2="1" y2="0" gradientUnits="userSpaceOnUse" gradientTransform="matrix(41.461,2.179,-2.179,41.461,134.809,268.366)"><stop offset="0" style="stop-color:rgb(231,85,243);stop-opacity:1"/><stop offset="1" style="stop-color:rgb(249,127,182);stop-opacity:1"/></linearGradient>
    </defs>
</svg>
