<svg width="34" height="34" viewBox="0 0 34 34" fill="none" xmlns="http://www.w3.org/2000/svg">
<g opacity="0.8">
<path d="M29.8309 10.1728C29.844 10.472 29.844 10.7576 29.844 11.0568C29.8571 20.128 23.1925 30.6 11.0045 30.6C7.40981 30.6 3.88068 29.5256 0.850098 27.5128C1.37487 27.5808 1.89965 27.608 2.42443 27.608C5.40253 27.608 8.30192 26.5744 10.6503 24.6568C7.81651 24.6024 5.32382 22.6848 4.45794 19.8832C5.45501 20.0872 6.47833 20.0464 7.44916 19.7608C4.3661 19.1352 2.14892 16.32 2.1358 13.0424C2.1358 13.0152 2.1358 12.988 2.1358 12.9608C3.05416 13.4912 4.09059 13.7904 5.14015 13.8176C2.24076 11.8048 1.33552 7.79275 3.09352 4.65114C6.46521 8.94876 11.4243 11.5464 16.7508 11.832C16.2129 9.45196 16.9476 6.94955 18.6663 5.26314C21.3295 2.66553 25.5277 2.80154 28.0466 5.56234C29.5291 5.26314 30.9592 4.69194 32.258 3.88954C31.7594 5.48074 30.723 6.82715 29.3455 7.68395C30.6574 7.52075 31.9431 7.15355 33.1501 6.60955C32.258 7.99675 31.1297 9.19356 29.8309 10.1728Z" fill="white"/>
</g>
</svg>
