<?xml version="1.0" encoding="UTF-8" standalone="no"?><!DOCTYPE svg PUBLIC "-//W3C//DTD SVG 1.1//EN" "http://www.w3.org/Graphics/SVG/1.1/DTD/svg11.dtd"><svg width="100%" height="100%" viewBox="0 0 4310 378" version="1.1" xmlns="http://www.w3.org/2000/svg" xmlns:xlink="http://www.w3.org/1999/xlink" xml:space="preserve" xmlns:serif="http://www.serif.com/" style="fill-rule:evenodd;clip-rule:evenodd;stroke-linejoin:round;stroke-miterlimit:2;"><path d="M0,224.438c2.756,35.043 37.8,56.7 94.5,56.7c57.487,-0 94.5,-22.838 94.5,-61.426c0,-33.862 -33.469,-55.912 -93.713,-64.575c-30.318,-4.331 -38.193,-11.025 -38.193,-20.868c-0,-13.388 14.175,-18.9 38.193,-18.9c25.988,-0 38.588,6.693 40.163,19.293l46.462,-12.6c-3.543,-30.712 -35.043,-50.006 -86.625,-50.006c-55.518,0 -90.956,22.444 -90.956,62.213c0,34.65 30.319,56.7 90.956,64.575c29.138,4.331 41.344,11.025 41.344,20.868c0,11.419 -16.537,17.719 -42.131,18.113c-30.319,0.787 -43.313,-7.088 -48.431,-27.563l-46.069,14.175Zm330.534,-152.381c-63.787,0 -105.918,40.95 -105.918,103.556c-0,63 44.493,106.707 108.675,106.707c45.281,-0 82.687,-22.444 95.681,-57.488l-48.431,-22.05c-6.3,18.9 -24.807,30.713 -48.432,30.713c-28.743,-0 -49.218,-17.325 -53.943,-45.281l157.5,0.393l-0,-0.393l1.181,0.393c5.512,-69.3 -37.406,-116.55 -106.313,-116.55Zm1.575,48.825c24.413,0 41.738,11.813 49.219,32.288l-100.406,-0c7.481,-20.082 25.987,-32.288 51.187,-32.288Zm225.169,161.438c30.713,-0 63,-13.388 68.119,-33.075c1.969,12.6 11.419,22.443 24.019,27.562c11.025,4.331 24.806,4.331 37.406,-1.575l-0,-43.312c-5.906,1.181 -11.419,0.787 -15.356,-1.969c-5.119,-3.15 -8.269,-9.45 -8.269,-19.688l-0,-63c-0,-45.675 -31.894,-75.206 -89.775,-75.206c-48.038,0 -88.2,20.081 -93.713,50.4l46.069,12.994c3.15,-12.206 18.506,-20.081 42.131,-20.081c23.625,-0 41.738,7.087 41.738,19.293c-0,11.419 -14.569,16.932 -58.275,20.475c-50.006,4.332 -78.356,26.382 -78.356,63c-0,36.619 27.562,64.182 84.262,64.182Zm-0.787,-42.525c-19.294,-0 -31.107,-8.269 -31.107,-20.475c0,-11.813 11.419,-19.688 29.925,-20.869c29.532,-2.362 49.219,-5.906 55.913,-13.388c-0.394,33.075 -22.838,54.732 -54.731,54.732Zm318.809,-167.738c-35.831,0 -65.756,14.963 -83.869,40.163l0,-38.588l-66.15,0l0,40.556l64.575,0c-10.631,15.75 -16.537,35.832 -16.537,58.276l-0,62.606l-45.281,-0l-0,40.556l147.656,-0l-0,-40.556l-49.219,-0l0,-61.425c0,-28.744 21.262,-49.613 48.825,-49.613c22.05,0 37.406,12.6 41.344,29.925l48.037,-17.325c-8.662,-38.981 -42.131,-64.575 -89.381,-64.575Zm124.897,104.344c-0,63.787 42.131,105.919 105.919,105.919c48.431,-0 85.443,-24.413 100.406,-64.969l-48.431,-20.869c-7.088,23.231 -25.988,37.013 -51.188,37.013c-32.287,-0 -54.337,-23.232 -54.337,-57.094c-0,-33.863 21.262,-55.519 53.55,-55.519c24.412,0 44.1,12.206 50.793,31.5l50.007,-16.537c-14.569,-40.163 -51.975,-63.788 -100.8,-63.788c-64.575,0 -105.919,40.95 -105.919,104.344Zm368.603,-104.344c-28.35,0 -57.487,14.963 -71.663,37.406l0,-109.462l-52.368,-0l-0,275.625l52.368,-0l0,-96.075c0,-37.406 23.232,-62.606 56.701,-62.606c26.774,-0 43.706,18.9 43.706,47.25l-0,111.431l52.369,-0l-0,-112.219c-0,-54.731 -31.894,-91.35 -81.113,-91.35Zm120.525,170.1l3.544,106.707l46.462,-0l3.938,-106.707l-53.944,0Z" style="fill:#f2f0ff;fill-rule:nonzero;"/><path d="M1845.55,72.056c-63.787,0 -105.919,40.95 -105.919,103.556c0,63 44.494,106.707 108.675,106.707c45.282,-0 82.688,-22.444 95.682,-57.488l-48.432,-22.05c-6.3,18.9 -24.806,30.713 -48.431,30.713c-28.744,-0 -49.219,-17.325 -53.944,-45.281l157.5,0.393l0,-0.393l1.182,0.393c5.512,-69.3 -37.407,-116.55 -106.313,-116.55Zm1.575,48.825c24.413,0 41.737,11.813 49.219,32.288l-100.406,-0c7.481,-20.082 25.987,-32.288 51.187,-32.288Zm285.806,-42.131l-48.037,153.169l-48.038,-153.169l-55.125,0l61.819,196.875l82.688,0l61.818,-196.875l-55.125,0Zm192.5,-6.694c-63.787,0 -105.919,40.95 -105.919,103.556c0,63 44.494,106.707 108.675,106.707c45.282,-0 82.688,-22.444 95.682,-57.488l-48.432,-22.05c-6.3,18.9 -24.806,30.713 -48.431,30.713c-28.744,-0 -49.219,-17.325 -53.944,-45.281l157.5,0.393l0,-0.393l1.182,0.393c5.512,-69.3 -37.407,-116.55 -106.313,-116.55Zm1.575,48.825c24.413,0 41.738,11.813 49.219,32.288l-100.406,-0c7.481,-20.082 25.987,-32.288 51.187,-32.288Zm291.716,-48.825c-35.831,0 -65.756,14.963 -83.869,40.163l0,-38.588l-66.15,0l0,40.557l64.575,-0.001c-10.631,15.751 -16.537,35.832 -16.537,58.276l-0,62.606l-45.282,-0l0,40.556l147.657,0l-0,-40.556l-49.219,-0l-0,-61.425c-0,-28.744 21.262,-49.613 48.825,-49.613c22.05,0 37.406,12.6 41.344,29.925l48.037,-17.325c-8.662,-38.981 -42.131,-64.575 -89.381,-64.575Zm105.994,233.888c-0,44.494 27.184,71.269 75.997,71.269c46.843,-0 76.375,-24.413 103.937,-101.588l66.938,-196.875l-57.094,0l-58.656,173.25l-58.657,-173.25l-56.718,0l66.937,196.875l40.156,0c-4.718,14.569 -22.437,55.125 -46.062,55.125c-20.469,0 -34.25,-15.75 -34.25,-43.313l-42.528,18.507Zm524.559,-227.194l-36.25,167.738l-36.219,-167.738l-61.031,0l-35.812,166.95l-36.25,-166.95l-55.5,0l42.531,196.875l89.375,0l26.375,-121.275l26,121.275l89.75,0l42.531,-196.875l-55.5,0Zm203.25,-6.694c-28.344,0 -57.5,14.963 -71.656,37.406l-0,-109.462l-52.375,0l-0,275.625l52.375,0l-0,-96.075c-0,-37.406 23.218,-62.606 56.687,-62.606c26.782,-0 43.719,18.9 43.719,47.25l0,111.431l52.375,0l0,-112.219c0,-54.731 -31.906,-91.35 -81.125,-91.35Zm225.656,0c-63.781,0 -105.906,40.95 -105.906,103.556c0,63 44.469,106.707 108.656,106.707c45.282,-0 82.688,-22.444 95.688,-57.488l-48.438,-22.05c-6.281,18.9 -24.812,30.713 -48.437,30.713c-28.719,-0 -49.219,-17.325 -53.938,-45.281l157.5,0.393l0,-0.393l1.188,0.393c5.5,-69.3 -37.406,-116.55 -106.313,-116.55Zm1.563,48.825c24.437,0 41.75,11.813 49.219,32.288l-100.407,-0c7.5,-20.082 26,-32.288 51.188,-32.288Zm291.719,-48.825c-35.813,0 -65.75,14.963 -83.875,40.163l-0,-38.588l-66.125,0l-0,40.557l64.562,-0.001c-10.625,15.751 -16.531,35.832 -16.531,58.276l-0,62.606l-45.281,-0l-0,40.556l147.656,0l-0,-40.556l-49.219,-0l0,-61.425c0,-28.744 21.25,-49.613 48.813,-49.613c22.062,0 37.406,12.6 41.343,29.925l48.032,-17.325c-8.657,-38.981 -42.125,-64.575 -89.375,-64.575Zm230.812,0c-63.781,0 -105.906,40.95 -105.906,103.556c-0,63 44.5,106.707 108.656,106.707c45.281,-0 82.688,-22.444 95.688,-57.488l-48.438,-22.05c-6.281,18.9 -24.781,30.713 -48.406,30.713c-28.75,-0 -49.219,-17.325 -53.969,-45.281l157.5,0.393l0,-0.393l1.188,0.393c5.531,-69.3 -37.407,-116.55 -106.313,-116.55Zm1.594,48.825c24.406,0 41.718,11.813 49.218,32.288l-100.406,-0c7.469,-20.082 25.969,-32.288 51.188,-32.288Z" style="fill:url(#_Linear1);fill-rule:nonzero;"/><defs><linearGradient id="_Linear1" x1="0" y1="0" x2="1" y2="0" gradientUnits="userSpaceOnUse" gradientTransform="matrix(4795.25,382.2,-382.2,4795.25,-16.5375,329.237)"><stop offset="0" style="stop-color:#f7c76a;stop-opacity:1"/><stop offset="0.49" style="stop-color:#e755f3;stop-opacity:1"/><stop offset="1" style="stop-color:#906fdf;stop-opacity:1"/></linearGradient></defs></svg>