<?xml version="1.0" encoding="UTF-8" standalone="no"?><!DOCTYPE svg PUBLIC "-//W3C//DTD SVG 1.1//EN" "http://www.w3.org/Graphics/SVG/1.1/DTD/svg11.dtd">
<svg width="100%" height="100%" viewBox="0 0 2500 2500" version="1.1"
  xmlns="http://www.w3.org/2000/svg"
  xmlns:xlink="http://www.w3.org/1999/xlink" xml:space="preserve"
  xmlns:serif="http://www.serif.com/" style="fill-rule:evenodd;clip-rule:evenodd;stroke-linejoin:round;stroke-miterlimit:2;">
  <g id="imagebot_2">
    <g id="imagebot_3">
      <path fill="currentColor" id="imagebot_4" d="M1818.51,2354.64c-28.281,-0.873 -62.985,-2.521 -77.127,-3.657c-26.633,-2.145 -37.998,-5.031 -218.621,-55.502c-79.913,-22.329 -164.335,-42.865 -202.791,-49.328c-14.672,-2.466 -30.611,-6.74 -42.324,-11.351c-30.378,-11.95 -114.529,-54.753 -187.867,-95.55c-106.306,-59.137 -174.309,-95.309 -232.745,-123.798c-85.445,-41.659 -162.224,-88.061 -247.804,-149.766c-53.434,-38.525 -81.448,-62.469 -127.554,-109.027c-82.661,-83.469 -127.846,-148.298 -166.093,-238.309c-31.115,-73.221 -63.868,-126.348 -107.898,-175.015c-22.593,-24.967 -50.818,-61.121 -68.716,-88.002c-19.889,-29.874 -43.293,-76.538 -52.561,-104.808c-20.51,-62.549 -28.403,-153.153 -18.176,-208.636c10.74,-58.264 41.996,-110.814 117.617,-197.753c10.404,-11.965 19.377,-22.202 19.936,-22.746c3.694,-3.584 28.383,-32.533 45.273,-53.076c45.404,-55.217 72.373,-100.384 104.106,-174.346c43.764,-102.006 88.203,-175.402 145.842,-240.896c30.199,-34.309 48.901,-50.036 104.877,-88.192l31.259,-21.303l314.814,1.198c173.147,0.658 325.493,1.59 338.546,2.072c13.054,0.482 49.094,1.834 80.093,3.007c319.487,12.096 516.988,46.028 654.793,112.512c78.215,37.732 161.632,102.035 201.326,155.195c22.249,29.797 35.766,64.431 35.766,91.634c0,47.454 13.832,98.725 35.529,131.689c13.558,20.602 23.382,30.897 46.526,48.762c40.925,31.594 63.853,66.853 77.221,118.756c11.062,42.96 15.943,104.548 14.098,177.981c-2.25,89.544 -4.314,96.635 -70.554,242.251l-34.184,75.146l1.242,206.656c0.683,113.66 1.662,218.669 2.177,233.352c0.516,14.683 1.436,43.606 2.046,64.27c2.262,76.454 3.964,110.923 11.081,223.94l4.015,63.759l-20.236,36.11c-44.958,80.217 -73.608,113.754 -128.153,150.018c-35.952,23.9 -92.781,50.361 -130.651,60.836c-46.953,12.984 -115.399,16.191 -254.118,11.906l-0.01,0.011Zm158.205,-59.956c73.896,-7.135 100.15,-13.437 145.024,-34.816c59.239,-28.219 103.639,-66.148 135.985,-116.17c10.394,-16.071 27.923,-52.093 33.641,-69.122c6.389,-19.034 8.114,-49.269 4.932,-86.551c-9.722,-114.004 -11.761,-180.25 -14.252,-462.736l-2.178,-247.194l35.708,-78.554c61.169,-134.565 65.714,-148.616 69.674,-215.425c3.277,-55.242 -1.611,-114.836 -12.14,-148.005c-5.915,-18.643 -18.183,-42.521 -29.735,-57.873c-5.539,-7.358 -24.938,-28.27 -43.113,-46.471c-63.134,-63.225 -82.687,-104.807 -87.159,-185.368c-2.499,-44.962 -10.459,-67.817 -33.764,-96.902c-37.345,-46.609 -136.048,-116.016 -207.592,-145.977c-61.212,-25.632 -113.049,-32.701 -218.493,-29.793c-83.015,2.29 -172.183,1.863 -211.599,-1.016c-45.517,-3.328 -63.119,-5.228 -139.42,-15.056c-88.002,-11.332 -135.474,-16.118 -186.881,-18.84c-81.144,-4.296 -150.536,3.664 -216.107,24.788c-103.796,33.436 -259.097,121.244 -353.496,199.872c-34.678,28.884 -60.639,46.61 -63.733,43.515c-7.186,-7.186 73.623,-74.046 170.587,-141.144c77.641,-53.726 129.935,-81.042 199.415,-104.165c129.515,-43.102 262.794,-51.64 401.76,-25.741c68.859,12.834 182.515,21.836 302.569,23.97c65.892,1.169 99.813,-0.402 104.241,-4.834c2.656,-2.656 -9.605,-8.951 -25.259,-12.969c-48.385,-12.418 -183.754,-25.841 -321.233,-31.85c-13.595,-0.592 -32.727,-1.502 -42.518,-2.021c-19.951,-1.055 -69.586,-2.637 -153.263,-4.888c-30.998,-0.836 -169.435,-1.344 -307.639,-1.136l-251.278,0.384l-34.481,23.315c-39.682,26.834 -49.751,34.901 -73.304,58.728c-56.547,57.205 -104.633,136.238 -152.046,249.894c-21.036,50.42 -47.304,105.14 -59.338,123.597c-4.611,7.069 -14.161,19.79 -21.219,28.266c-7.062,8.476 -12.505,15.706 -12.1,16.06c0.811,0.713 101.841,3.073 133.07,3.109c10.785,0.015 19.078,0.559 18.424,1.213c-0.654,0.654 -21.492,3.336 -46.306,5.959c-71.518,7.562 -119.721,16.995 -142.92,27.974c-39.84,18.847 -131.711,148.626 -146.397,206.802c-16.225,64.27 -4.085,147.139 32.588,222.483c29.716,61.059 66.009,100.164 113.155,121.949c17.905,8.271 40.114,23.765 40.114,27.985c0,3.796 -8.673,3.072 -28.112,-2.342c-7.307,-2.038 -13.89,-3.098 -14.628,-2.356c-1.714,1.713 5.089,11.961 23.933,36.069c24.949,31.92 56.605,89.632 78.953,143.947c41.516,100.906 133.592,215.936 233.154,291.286c71.262,53.931 211.296,140.68 266.348,165.001c36.972,16.334 143.749,73.107 241.261,128.284c49.427,27.967 132.537,70.024 168.092,85.061c18.402,7.786 32.047,11.943 53.394,16.272c63.185,12.824 123.94,28.924 304.398,80.667c110.237,31.609 116.546,33.139 147.413,35.726c30.451,2.55 157.278,0.691 193.863,-2.846l0.007,-0.015Zm-96.887,-193.08c-153.365,-2.309 -263.105,-7.544 -329.264,-15.709c-195.086,-24.076 -433.618,-86.888 -598.202,-157.534c-60.733,-26.063 -172.146,-86.263 -264.003,-142.645c-58.001,-35.602 -102.835,-66.813 -102.835,-71.592c0,-8.052 42.555,13.792 133.487,68.527c100.851,60.7 128.375,76.293 182.851,103.569c114.763,57.464 219.911,92.598 411.405,137.469c186.629,43.731 256.163,52.637 477.568,61.179c42.419,1.637 86.914,3.412 98.879,3.949c32.964,1.473 102.184,3.961 107.778,3.869c3.039,-0.047 22.095,-11.775 49.437,-30.421c121.997,-83.191 126.984,-88.415 133.297,-139.625c1.552,-12.607 3.24,-23.341 3.752,-23.849c1.684,-1.688 3.806,57.99 2.374,66.78c-1.841,11.26 -9.48,25.278 -18.504,33.943c-9.217,8.856 -41.024,31.595 -100.815,72.085l-47.453,32.135l-20.437,-0.322c-11.242,-0.175 -64.935,-0.99 -119.319,-1.808l0.004,0Zm-197.757,-86.172c-59.082,-0.906 -186.428,-6.908 -266.97,-12.586c-106.28,-7.493 -151.673,-18.493 -263.017,-63.744c-87.151,-35.419 -204.515,-92.412 -320.528,-155.651c-48.355,-26.363 -102.878,-59.24 -112.315,-67.726c-7.99,-7.19 -8.048,-7.336 -2.959,-7.417c9.246,-0.146 64.843,27.064 147.081,71.99c78.741,43.015 173.812,90.033 250.336,123.809c10.236,4.519 54.654,23.14 98.703,41.381l80.092,33.166l23.729,1.308c13.053,0.719 39.303,2.173 58.337,3.233c71.818,3.997 216.239,11.731 259.06,13.872c24.474,1.224 76.531,2.265 115.687,2.312c78.241,0.099 112.4,-2.484 148.546,-11.237c52.189,-12.637 80.272,-29.428 129.3,-77.302c28.065,-27.404 41.765,-38.474 47.622,-38.474c2.996,0 3.259,0.914 1.764,6.123c-7.672,26.754 -67.375,78.836 -121.627,106.101c-29.231,14.694 -61.446,22.381 -113.383,27.061c-32.131,2.897 -104.818,4.621 -159.462,3.785l0.004,-0.004Zm-211.599,-89.529l-13.843,-1.133l14.844,-1.523c19.147,-1.962 206.711,-1.988 227.992,-0.029l16.224,1.494l-12.852,1.278c-15.713,1.568 -213.083,1.491 -232.365,-0.087Zm8.899,-66.579c-5.984,-0.398 -29.384,-1.651 -52.002,-2.784c-146.138,-7.321 -267.996,-30.476 -366.213,-69.586c-100.128,-39.869 -223.685,-125.102 -317.503,-219.019c-71.478,-71.551 -115.023,-129.968 -185.821,-249.287c-37.539,-63.258 -60.873,-99.478 -73.798,-114.552c-10.668,-12.439 -12.645,-19.79 -9.068,-33.749c3.537,-13.788 0.018,-34.046 -9.166,-52.828c-10.668,-21.814 -19.626,-26.239 -53.314,-26.315c-38.302,-0.088 -62.633,-9.265 -63.886,-24.098c-0.515,-6.134 0.329,-7.844 5.933,-11.99c3.595,-2.664 15.435,-8.198 26.311,-12.308c26.374,-9.959 51.188,-22.838 63.284,-32.837c18.336,-15.165 26.45,-30.228 34.758,-64.526c9.638,-39.799 28.098,-61.296 41.301,-48.093c3.424,3.424 7.336,14.314 10.705,29.779c8.819,40.505 126.614,107.467 337.563,191.889c115.863,46.369 285.233,106.405 362.246,128.405c93.168,26.615 184.769,44.568 279.333,54.75c40.508,4.362 168.318,5.008 201.71,1.023c106.861,-12.762 178.598,-36.823 249.174,-83.578c68.04,-45.076 92.861,-85.325 101.75,-164.976c1.213,-10.876 4.084,-28.956 6.378,-40.176c5.601,-27.363 12.904,-38.024 24.124,-35.207c9.436,2.367 16.012,17.602 20.721,48.027c3.073,19.838 9.426,35.533 18.267,45.123c9.353,10.145 13.898,20.557 20.423,46.807c25.924,104.274 29.851,332.343 7.986,463.794c-23.334,140.297 -79.242,204.293 -208.545,238.715c-59.455,15.826 -151.191,28.262 -257.084,34.85c-34.042,2.118 -194.29,4.146 -215.556,2.729l-0.011,0.018Zm90.783,-64.577c1.14,-5.71 2.919,-15.72 3.949,-22.249c1.03,-6.525 5.056,-30.345 8.94,-52.937c9.853,-57.26 9.309,-71.31 -3.014,-77.685c-6.427,-3.321 -23.82,-6.014 -57.153,-8.845c-34.134,-2.897 -72.629,-9.061 -94.59,-15.143c-16.005,-4.436 -18.829,-4.735 -21.281,-2.284c-4.815,4.815 -8.402,28.591 -10.839,71.858c-3.27,58.081 -0.256,103.511 7.241,109.097c6.58,4.903 48.232,7.851 116.856,8.275l47.816,0.296l2.075,-10.383Zm131.305,5.367c14.72,-4.498 20.916,-11.629 35.54,-40.903c10.131,-20.287 40.98,-95.667 40.98,-100.139c0,-2.568 -40.114,-5.243 -77.122,-5.144c-45.752,0.124 -46.932,0.968 -57.19,40.888c-4.395,17.113 -19.937,102.477 -19.937,109.514c0,0.69 14.906,0.814 33.122,0.274c23.725,-0.705 36.384,-1.977 44.604,-4.49l0.003,-0Zm127.159,-15.856c9.905,-2.517 23.495,-5.195 30.203,-5.955c6.707,-0.76 12.812,-2.375 13.572,-3.591c0.756,-1.217 1.461,-9.331 1.567,-18.033c0.274,-22.6 4.465,-34.605 38.85,-111.384c2.108,-4.702 3.555,-9.254 3.222,-10.112c-0.336,-0.859 -10.795,1.435 -23.239,5.1c-12.443,3.66 -28.419,7.668 -35.499,8.899c-15.078,2.627 -17.533,4.863 -26.82,24.441c-6.525,13.755 -34.696,104.348 -34.696,111.574c0,6.934 2.086,6.876 32.837,-0.939l0.003,0Zm-497.661,3.131c5.78,-3.094 9.722,-16.093 11.819,-38.985c2.316,-25.237 7.036,-148.652 5.739,-149.949c-0.493,-0.493 -17.748,-5.736 -38.342,-11.654c-69.432,-19.951 -104.636,-32.65 -183.71,-66.268c-13.013,-5.532 -23.772,-10.058 -23.915,-10.058c-0.142,-0 -0.832,14.522 -1.534,32.27c-1.702,43.154 -6.054,60.058 -25.654,99.609c-31.532,63.634 -26.761,74.459 44.104,100.066c85.028,30.725 194.585,54.018 211.489,44.969l0.004,0Zm620.67,-30.553c6.719,-2.634 18.618,-5.783 26.436,-6.996c8.596,-1.334 18.742,-4.614 25.654,-8.301c11.577,-6.17 35.321,-26.096 35.321,-29.639c-0,-1.202 -5.214,-1.418 -13.806,-0.574c-11.056,1.089 -14.778,0.723 -18.691,-1.838c-10.116,-6.627 -10.145,-23.074 -0.11,-62.662c7.548,-29.775 6.335,-39.471 -4.08,-32.647c-13.869,9.09 -37.539,49.799 -55.831,96.029c-21.482,54.289 -21.193,56.934 5.104,46.628l0.003,-0Zm112.045,-65.096c12.261,-20.926 41.597,-98.29 45.36,-119.626c5.448,-30.907 -40.873,64.8 -52.645,108.761c-6.002,22.417 -2.524,27.601 7.285,10.865Zm-1052.5,-39.748c35.014,-82.051 44.067,-125.932 30.856,-149.58c-6.627,-11.866 -11.738,-14.964 -40.53,-24.547c-37.388,-12.447 -70.897,-27.824 -145.331,-66.692l-50.654,-26.451l-1.092,30.74c-1.48,41.681 -6.309,59.517 -23.455,86.654c-11.095,17.554 0.647,29.881 104.107,109.269c26.103,20.027 60.364,46.423 76.136,58.647c15.768,12.224 29.585,22.26 30.695,22.3c1.115,0.044 9.784,-18.113 19.272,-40.344l-0.004,0.004Zm-273.231,-189.515c3.693,-2.47 8.274,-7.588 10.174,-11.373c7.04,-14.007 2.868,-67.708 -6.875,-88.525c-9.083,-19.406 -31.116,-35.583 -88.77,-65.183c-35.204,-18.073 -51.041,-25.033 -52.846,-23.224c-5.158,5.154 86.914,145.542 120.284,183.402c4.552,5.166 8.961,9.393 9.798,9.393c0.833,-0 4.537,-2.02 8.235,-4.49Zm659.432,-15.783c-0.712,-11.15 -2.13,-32.284 -3.153,-46.967c-1.023,-14.683 -2.031,-31.35 -2.239,-37.038c-0.209,-5.688 -0.888,-11.135 -1.509,-12.107c-0.621,-0.972 -5.582,-2.737 -11.019,-3.92c-5.44,-1.18 -29.022,-6.653 -52.404,-12.162c-159.129,-37.473 -170.787,-39.442 -175.979,-29.739c-2.575,4.812 -15.198,58.838 -18.084,77.393c-3.715,23.893 0.505,35.332 15.933,43.201c10.306,5.257 54.069,18.461 81.232,24.507c36.669,8.162 77.495,13.408 116.678,14.993c20.119,0.811 40.019,1.619 44.213,1.79l7.628,0.315l-1.293,-20.269l-0.004,0.003Zm224.324,16.81c-0.011,-5.006 -9.199,-56.291 -13.141,-73.367c-2.528,-10.946 -4.37,-14.964 -7.464,-16.265c-5.045,-2.126 -44.173,-7.946 -98.042,-14.588c-22.296,-2.751 -43.877,-5.531 -47.954,-6.181l-7.416,-1.184l-0,115.044l87.012,0c81.554,0 87.012,-0.215 87.005,-3.459Zm166.122,-3.321c27.137,-3.961 53.325,-10.409 60.847,-14.983c9.758,-5.936 9.59,-10.806 -1.965,-56.466c-9.368,-37.012 -10.898,-41.375 -14.413,-41.068c-5.703,0.497 -167.967,26.79 -168.61,27.32c-1.242,1.023 5.831,68.895 7.69,73.784c2.485,6.539 7.373,12.147 12.63,14.489c5.856,2.612 79.855,0.416 103.821,-3.08l0,0.004Zm151.282,-18.925c3.263,-0.924 10.603,-2.272 16.313,-3.003c11.413,-1.458 15.362,-5.184 21.036,-19.856c13.05,-33.735 15.658,-81.528 6.17,-113.068c-5.44,-18.08 -11.223,-17.963 -45.499,0.899c-41.264,22.709 -43.822,27.283 -35.887,64.233c2.872,13.375 6.112,33.491 7.197,44.703c2.689,27.762 6.295,33.501 18.636,29.662c3.354,-1.042 8.768,-2.649 12.031,-3.57l0.003,0Zm124.007,-44.706c3.379,-1.75 10.456,-7.212 15.72,-12.136c8.783,-8.213 9.576,-9.718 9.565,-18.081c-0.019,-12.436 -5.824,-35.58 -16.919,-67.459c-14.402,-41.389 -27.353,-67.12 -31.627,-62.846c-5.155,5.159 -5.937,54.929 -1.644,104.921c5.005,58.268 7.778,64.457 24.905,55.601Zm-989.441,-9.798c2.188,-2.784 5.001,-10.127 6.243,-16.313c1.246,-6.188 5.648,-27.272 9.784,-46.847c8.805,-41.666 8.512,-43.877 -7.109,-53.901c-9.927,-6.372 -37.893,-18.074 -64.033,-26.798c-49.982,-16.681 -113.748,-38.795 -152.272,-52.817c-49.087,-17.861 -67.054,-21.551 -70.806,-14.54c-3.639,6.803 -4.165,22.326 -1.144,33.936c5.795,22.275 29.023,59.115 54.428,86.322c18.556,19.867 27.978,26.14 44.575,29.68c25.131,5.359 44.71,12.991 105.443,41.1c59.174,27.386 67.463,29.618 74.894,20.178l-0.003,-0Zm-332.709,-126.739c3.603,-8.626 3.939,-42.591 0.833,-84.74c-1.121,-15.227 -2.046,-29.19 -2.057,-31.032c-0.018,-3.551 -3.171,-5.505 -84.064,-52.108c-120.06,-69.165 -148.812,-77.396 -147.84,-42.317c0.394,14.223 12.706,52.543 24.74,77.006c13.795,28.043 39.53,51.249 90.472,81.583c42.072,25.051 106.353,58.692 112.327,58.787c1.413,0.022 3.927,-3.208 5.589,-7.176l0,-0.003Zm1369.57,-51.626c-3.109,-12.107 -14.409,-34.539 -17.982,-35.704c-2.192,-0.713 -2.502,0.741 -1.505,7c3.741,23.377 14.555,45.429 19.743,40.241c1.552,-1.556 1.479,-4.771 -0.256,-11.537Zm-1781.78,56.806c-5.772,-2.049 -21.927,-9.67 -35.905,-16.933c-87.349,-45.393 -102.937,-81.514 -106.171,-246.021c-1.351,-68.863 0.764,-106.759 7.274,-130.254c7.676,-27.696 34.141,-73.023 55.791,-95.557c19.739,-20.539 44.94,-33.191 78.624,-39.471c13.21,-2.459 131.828,-3.701 163.148,-1.706l15.823,1.004l-28.675,2.605c-15.772,1.429 -32.234,2.985 -36.585,3.456c-4.351,0.468 -26.6,2.675 -49.438,4.903c-105.293,10.262 -117.079,15.768 -152.213,71.109c-17.635,27.777 -29.845,52.978 -34.978,72.18c-3.766,14.094 -4.325,22.53 -5.129,77.418c-1.677,114.413 6.704,169.991 31.233,207.12c14.134,21.398 26.249,31.671 63.199,53.599c40.633,24.112 53.394,33.611 53.394,39.741c0,1.874 -9.564,0.3 -19.392,-3.189l0,-0.004Zm1232.32,1.853c-15.754,-2.631 -31.412,-9.244 -38.105,-16.094c-7.109,-7.27 -13.996,-24.291 -13.996,-34.586c0,-3.968 1.79,-10.916 3.982,-15.443c7.062,-14.584 19.827,-16.721 34.857,-5.834c20.89,15.132 30.948,15.976 52.82,4.45c23.499,-12.382 59.064,-53.877 78.687,-91.788c9.506,-18.365 10.32,-32.087 2.911,-48.849c-8.468,-19.147 -19.764,-28.92 -36.804,-31.842c-22.903,-3.924 -49.192,-43.275 -58.329,-87.298c-1.787,-8.6 -3.968,-31.824 -4.852,-51.607c-2.269,-50.749 -3.376,-52.714 -42.927,-76.224c-21.544,-12.801 -35.204,-25.226 -37.41,-34.031c-2.152,-8.56 0.639,-14.617 8.581,-18.639c9.148,-4.629 14.782,-5.754 36.059,-7.198c31.583,-2.14 51.019,-10.609 77.853,-33.928c48.166,-41.853 82.194,-58.001 141.656,-67.23c33.169,-5.147 115.187,-5.151 137.122,-0.007c27.122,6.361 41.502,14.413 64.522,36.128c16.009,15.103 24.105,27.4 24.379,37.034c0.822,29.037 -37.656,43.139 -151.863,55.645c-127.149,13.923 -196.025,36.592 -204.461,67.295c-2.685,9.762 -2.74,27.762 -0.165,52.404c4.483,42.916 10.709,53.076 49.719,81.156c45.77,32.946 77.21,59.944 111.176,95.466c35.361,36.983 48.838,47.366 66.001,50.854c16.276,3.307 33.94,12.265 50.563,25.636c12.659,10.182 25.055,24.185 25.055,28.299c-0,4.348 -13.277,0.055 -29.739,-9.612c-24.579,-14.434 -70.9,-37.093 -86.38,-42.258c-21.664,-7.227 -27.163,-5.437 -39.263,12.794c-9.257,13.945 -14.24,15.38 -24.572,7.08c-12.085,-9.714 -17.043,-8.447 -36.304,9.272c-10.967,10.087 -26.647,26.947 -43.635,46.92c-17.832,20.96 -45.021,47.268 -54.739,52.963c-17.024,9.974 -38.389,13.079 -62.392,9.068l-0.007,0.004Zm310.481,-554.801c8.322,-0.705 15.129,-1.961 15.129,-2.791c-0,-2.426 -15.385,-4.366 -34.609,-4.366c-20.616,0.004 -38.561,2.127 -38.561,4.567c0,2.864 35.883,4.465 58.041,2.59Zm-672.402,492.803c-11.362,-6.496 -25.723,-17.65 -30.425,-23.626c-7.442,-9.463 -15.552,-30.013 -18.428,-46.709c-5.114,-29.702 -0.511,-69.099 10.624,-90.928c13.098,-25.673 38.313,-39.022 77.561,-41.053c50.771,-2.631 77.207,14.032 61.278,38.627c-4.377,6.762 -14.938,11.212 -35.967,15.154c-51.787,9.711 -63.284,17.755 -63.284,44.282c0,16.583 6.003,31.485 17.953,44.561c11.435,12.509 15.68,21.551 15.622,33.263c-0.048,9.046 -5.119,22.246 -10.686,27.814c-4.75,4.749 -14.497,4.194 -24.252,-1.385l0.004,-0Zm-885.758,-14.723c-6.69,-4.132 -17.544,-16.901 -24.018,-28.255c-14.566,-25.541 -26.234,-86.421 -26.22,-136.779c0.018,-62.83 16.397,-116.286 48.879,-159.546c11.018,-14.672 34.283,-37.436 48.597,-47.545c42.751,-30.206 135.602,-40.614 199.05,-22.322c10.708,3.087 28.467,11.15 49.437,22.447c57.548,30.991 112.677,53.499 154.899,63.247c36.194,8.351 67.763,3.576 111.621,-16.883c29.004,-13.532 49.777,-28.284 73.228,-51.991c23.722,-23.984 30.455,-27.725 43.556,-24.2c11.661,3.142 15.3,8.326 15.143,21.592c-0.406,34.802 -57.508,92.258 -114.288,114.993c-61.282,24.54 -131.357,22.918 -212.509,-4.917c-45.55,-15.626 -113.108,-47.618 -127.817,-60.537c-8.797,-7.726 -16.886,-10.843 -35.364,-13.627c-26.528,-3.996 -68.077,0.589 -98.225,10.844c-26.509,9.016 -39.621,18.836 -57.756,43.263c-15.154,20.407 -25.844,38.897 -33.421,57.822c-18.533,46.288 -19.969,65.022 -8.607,112.49c14.292,59.729 17.145,75 17.437,93.285c0.249,15.6 -0.292,18.918 -3.865,23.733c-5.107,6.883 -11.724,7.851 -19.761,2.886l0.004,-0Zm1887.77,-4.852c-0,-6.167 22.011,-21.485 67.236,-46.792c58.103,-32.511 62.867,-38.813 76.22,-100.891c8.926,-41.488 11.611,-67.051 10.076,-95.912c-3.236,-60.832 -19.114,-94.199 -57.04,-119.889c-11.877,-8.045 -27.477,-21.657 -44.088,-38.481c-25.187,-25.501 -34.536,-32.358 -48.451,-35.544c-3.807,-0.869 -42.964,-1.647 -87.013,-1.724c-75.982,-0.135 -80.498,-0.343 -88.002,-4.095c-22.614,-11.308 0.789,-25.567 29.662,-18.074c18.172,4.717 51.235,7.194 96.043,7.194c64.895,0.003 72.644,2.645 110.2,37.575c25.987,24.17 47.333,41.966 58.111,48.451c13.649,8.212 42.518,75.544 47.201,110.09c4.253,31.357 -9.02,117.66 -26.103,169.732c-5.045,15.373 -7.654,20.225 -14.354,26.699c-18.987,18.343 -96.61,58.505 -122.45,63.349c-5.805,1.089 -7.252,0.753 -7.252,-1.695l0.004,0.007Zm-918.566,-2.762c-12.049,-2.937 -19.151,-18.263 -18.983,-40.983c0.139,-18.884 0.924,-21.866 7.727,-29.227c9.276,-10.047 21.014,-12.425 60.697,-12.308c40.545,0.12 62.224,3.894 86.391,15.03c27.36,12.615 33.768,31.261 13.664,39.774c-2.934,1.238 -26.728,2.769 -55.561,3.569c-29.833,0.826 -53.627,2.382 -58.264,3.803c-4.329,1.33 -10.963,5.751 -14.832,9.879c-6.061,6.474 -14.296,12.378 -16.258,11.654c-0.343,-0.124 -2.404,-0.661 -4.581,-1.191Zm943.445,-85.361c-2.36,-3.814 6.375,-17.2 23.952,-36.701c30.494,-33.838 33.293,-39.563 32.913,-67.347c-0.285,-20.663 -5.141,-60.744 -10.748,-88.729c-6.715,-33.501 -14.804,-44.333 -46.124,-61.775c-21.091,-11.745 -37.988,-26.26 -36.147,-31.053c0.706,-1.841 2.952,-3.343 4.991,-3.343c5.867,-0 25.65,7.31 43.007,15.892c27.517,13.609 38.934,28.343 46.299,59.762c8.864,37.812 14.855,123.655 10.109,144.856c-2.93,13.093 -13.861,30.308 -29.113,45.85c-17.328,17.656 -35.654,28.233 -39.139,22.592l0,-0.004Zm-1288.29,-25.95c-10.686,-2.279 -12.082,-3.54 -7.574,-6.839c6.065,-4.435 32.234,-7.175 85.464,-8.95c69.242,-2.309 93.913,-7.548 104.555,-22.206c3.833,-5.279 3.836,-5.578 0.282,-16.041c-4.322,-12.714 -3.19,-17.153 4.362,-17.113c6.605,0.037 9.115,1.538 12.125,7.256c5.966,11.333 -1.026,35.551 -13.517,46.836c-8.984,8.114 -14.72,9.89 -45.51,14.087c-26.754,3.646 -127.057,5.773 -140.187,2.97Zm979.65,-77.115c-29.07,-5.337 -40.176,-9.751 -53.548,-21.262c-14.284,-12.298 -23.187,-35.138 -18.836,-48.327c6.912,-20.945 19.969,-20.828 62.063,0.563c30.294,15.391 36.117,14.387 69.644,-12.042c59.528,-46.92 71.044,-52.258 118.059,-54.702c53.496,-2.784 105.615,11.724 129.311,35.997c15.939,16.323 18.745,37.494 6.678,50.413c-10.054,10.762 -27.85,7.719 -50.654,-8.666c-37.758,-27.126 -90.359,-29.698 -124.627,-6.098c-12.597,8.677 -21.636,20.741 -29.198,38.967c-6.77,16.316 -13.671,24.072 -23.97,26.929c-12.388,3.442 -62.217,2.404 -84.922,-1.768l-0,-0.004Zm-690.194,-141.093c-26.016,-15.11 -77.462,-43.625 -90.969,-50.413c-85.211,-42.832 -179.84,-52.582 -282.876,-29.153c-54.103,12.3 -89.482,10.974 -109.247,-4.103c-18.833,-14.362 -15.651,-45.474 8.341,-81.562c41.155,-61.906 127.689,-99.937 248.323,-109.136c81.978,-6.251 149.7,8.077 211.318,44.72c38.375,22.819 93.548,69.177 107.694,90.491c14.394,21.69 16.495,44.786 6.024,66.334c-8.933,18.387 -54.253,60.558 -78.018,72.599c-11.617,5.89 -10.85,5.879 -20.586,0.223l-0.004,0Zm32.161,-84.94c4.91,-4.911 7.058,-8.842 7.058,-12.908c-0,-11.654 -26.487,-40.446 -54.578,-59.323c-46.036,-30.941 -122.899,-65.589 -129.924,-58.567c-2.342,2.345 -13.916,55.498 -13.916,63.915c-0,9.762 5.407,14.135 19.805,16.028c21.405,2.816 39.814,10.028 93.091,36.475c40.198,19.958 48.846,23.053 61.815,22.125c7.873,-0.563 10.843,-1.944 16.645,-7.745l0.004,-0Zm-427.81,-50.965c21.051,-6.572 34.338,-17.916 28.804,-24.587c-3.256,-3.92 -20.299,-3.884 -31.887,0.066c-15.052,5.125 -32.15,22.588 -28.27,28.865c1.622,2.627 14.935,0.782 31.353,-4.344Zm-161.694,75.95c-0.727,-0.723 -1.319,-3.854 -1.319,-6.949c0,-8.538 9.842,-14.047 22.622,-12.662c5.374,0.58 11.018,2.305 12.542,3.832c2.382,2.378 1.838,3.489 -3.843,7.822c-10.533,8.034 -25.863,12.1 -30.002,7.957Zm-44.662,-39.398c-12.02,-3.23 -20.755,-8.096 -27.576,-15.355c-9.29,-9.89 -1.626,-15.775 28.401,-21.811c21.833,-4.387 80.444,-13.397 81.335,-12.502c0.402,0.402 -13.729,7.146 -31.404,14.983c-31.62,14.025 -43.165,20.535 -40.728,22.969c0.68,0.679 11.07,3.653 23.09,6.609c12.019,2.955 22.501,6.02 23.29,6.809c2.703,2.708 -45.423,1.254 -56.412,-1.702l0.004,-0Zm984.216,-102.882c-1.881,-86.282 7.906,-132.661 30.459,-144.327c6.349,-3.284 11.5,-1.793 11.5,3.329c0,2.038 -4.037,11.508 -8.972,21.047c-11.698,22.603 -18.866,51.563 -25.585,103.331c-2.89,22.279 -5.611,40.863 -6.05,41.302c-0.438,0.438 -1.048,-10.668 -1.352,-24.686l0,0.004Zm-891.384,-59.806c-0,-12.502 39.701,-57.303 87.604,-98.867c41.897,-36.351 71.087,-52.876 124.623,-70.551c44.268,-14.613 82.585,-21.788 136.812,-25.621c8.698,-0.613 22.271,-1.622 30.155,-2.239c25.036,-1.962 127.257,-1.195 148.173,1.114c31.941,3.526 46.916,9.565 32.917,13.276c-7.216,1.911 -49.401,1.999 -105.448,0.22c-80.673,-2.565 -154.223,5.783 -221.474,25.142c-66.959,19.272 -107.632,45.74 -179.968,117.109c-27.704,27.331 -47.363,44.067 -51.765,44.067c-0.895,-0 -1.629,-1.644 -1.629,-3.65Zm570.802,-23.824c-2.507,-42.868 -11.804,-68.771 -39.709,-110.602c-14.854,-22.263 -18.457,-29.881 -16.009,-33.844c2.251,-3.643 15.618,4.891 27.108,17.306c13.138,14.189 25.27,38.203 31.098,61.551c4.742,18.998 5.173,40.958 1.424,72.301l-2.367,19.775l-1.545,-26.483l-0,-0.004Zm702.834,17.091c-2.112,-4.622 -6.518,-17.339 -9.791,-28.255c-10.134,-33.809 -25.263,-51.969 -66.049,-79.289c-28.515,-19.1 -53.222,-31.317 -71.613,-35.409c-12.773,-2.842 -20.81,-3.244 -44.356,-2.221c-55.622,2.422 -135.847,12.827 -177.685,23.049c-27.05,6.605 -34.415,7.234 -37.739,3.23c-9.422,-11.355 29.555,-23.207 107.569,-32.709c94.005,-11.453 137.648,-13.477 161.172,-7.478c15.717,4.007 51.999,22.059 75.724,37.677c32.895,21.653 57.631,49.638 67.097,75.917c6.386,17.73 7.376,53.894 1.476,53.894c-1.081,0 -3.693,-3.785 -5.805,-8.406Zm-1341.95,-14.647c2.981,-11.986 45.663,-63.63 72.764,-88.038c79.833,-71.91 186.033,-128.763 281.656,-150.786c58.549,-13.484 110.894,-19.114 185.566,-19.965c79.424,-0.903 114.354,2.217 180.947,16.169c73.732,15.451 119.564,19.473 221.485,19.436c86.223,-0.029 112.356,-1.494 200.724,-11.248c91.849,-10.142 144.052,-8.611 168.032,4.928c9.927,5.604 16.868,15.761 16.868,24.686c0,6.7 -0.164,6.843 -6.43,5.593c-3.533,-0.701 -12.381,-5.239 -19.662,-10.076c-7.281,-4.837 -18.848,-10.704 -25.709,-13.039c-11.512,-3.916 -15.136,-4.154 -47.081,-3.098c-19.034,0.632 -45.287,2.514 -58.337,4.183c-48.327,6.178 -114.387,11.099 -172.892,12.878c-33.096,1.005 -60.763,1.465 -61.486,1.02c-0.72,-0.45 -16.36,-0.965 -34.751,-1.151c-62.553,-0.628 -129.921,-7.84 -194.611,-20.832c-103.891,-20.864 -202.612,-21.712 -300.588,-2.582c-138.382,27.016 -254.022,86.822 -336.899,174.232c-25.997,27.419 -56.729,55.805 -65.3,60.317l-5.699,3l1.403,-5.627Z" style="fill-rule:nonzero;"/>
    </g>
  </g>
</svg>