<svg version="1.1" xmlns="http://www.w3.org/2000/svg" viewBox="0 0 137 171.47888652591843" width="411" height="514.4366595777553">
  <!-- svg-source:excalidraw -->
  
  <defs>
    <style class="style-fonts">
      @font-face {
        font-family: "Virgil";
        src: url("https://excalidraw.com/Virgil.woff2");
      }
      @font-face {
        font-family: "Cascadia";
        src: url("https://excalidraw.com/Cascadia.woff2");
      }
    </style>
  </defs>
  <rect x="0" y="0" width="137" height="171.47888652591843" fill="#ffffff"></rect><g transform="translate(10 34.263918395695555) rotate(0 58.5 23.5)"><text x="0" y="32" font-family="Virgil, Segoe UI Emoji" font-size="36px" fill="#000000" text-anchor="start" style="white-space: pre;" direction="ltr">London</text></g><g transform="translate(10.214968130222928 114.47888652591843) rotate(0 40 23.5)"><text x="0" y="32" font-family="Virgil, Segoe UI Emoji" font-size="36px" fill="#a00" text-anchor="start" style="white-space: pre;" direction="ltr">Orqg</text></g><g transform="translate(29.52683955258874 10) rotate(0 42.5 11)"><text x="0" y="15" font-family="Virgil, Segoe UI Emoji" font-size="16px" fill="#00a" text-anchor="start" style="white-space: pre;" direction="ltr">shift = +3</text></g><g stroke-linecap="round"><g transform="translate(22.960408810202182 71.48668091293823) rotate(0 -0.2792470993381073 23.79404117338393)"><path d="M-1.09 0.77 C-1.03 4.37, 0.1 14.33, 0.21 21.93 C0.33 29.53, -0.25 42.21, -0.4 46.35 M0.53 0.13 C0.41 3.85, -0.79 15.24, -1 23.13 C-1.21 31.01, -0.88 43.32, -0.74 47.45" stroke="#aaa" stroke-width="1" fill="none"></path></g><g transform="translate(22.960408810202182 71.48668091293823) rotate(0 -0.2792470993381073 23.79404117338393)"><path d="M-4.43 35.67 C-4.55 40.27, -3.04 43.23, -0.7 47.77 M-5.34 36.57 C-4.61 38.11, -2.9 41.01, -0.76 46.86" stroke="#aaa" stroke-width="1" fill="none"></path></g><g transform="translate(22.960408810202182 71.48668091293823) rotate(0 -0.2792470993381073 23.79404117338393)"><path d="M3.86 35.43 C1.37 40.02, 0.51 43.05, -0.7 47.77 M2.96 36.33 C1.85 37.98, 1.71 40.93, -0.76 46.86" stroke="#aaa" stroke-width="1" fill="none"></path></g></g><mask></mask><g stroke-linecap="round"><g transform="translate(41.87684587225391 72.7994640627852) rotate(0 0.3236125054816341 24.10761344665697)"><path d="M-0.87 0.82 C-0.91 4.08, -0.96 12.84, -0.8 20.49 C-0.64 28.15, 0.11 42.17, 0.1 46.72 M0.88 0.2 C1.26 3.56, 1.74 13.93, 1.49 21.9 C1.24 29.86, -0.19 44.03, -0.62 48.02" stroke="#aaa" stroke-width="1" fill="none"></path></g><g transform="translate(41.87684587225391 72.7994640627852) rotate(0 0.3236125054816341 24.10761344665697)"><path d="M-2.93 34.54 C-3.18 38.74, -2.14 40.9, 0.5 48.02 M-3.82 35.3 C-3.17 38.33, -2.66 41.34, -1.15 47.47" stroke="#aaa" stroke-width="1" fill="none"></path></g><g transform="translate(41.87684587225391 72.7994640627852) rotate(0 0.3236125054816341 24.10761344665697)"><path d="M5.93 35.44 C3.41 39.35, 2.21 41.27, 0.5 48.02 M5.03 36.2 C3.55 39.04, 1.94 41.84, -1.15 47.47" stroke="#aaa" stroke-width="1" fill="none"></path></g></g><mask></mask><g stroke-linecap="round"><g stroke-opacity="0.9" fill-opacity="0.9" transform="translate(60.266380346996186 75.30868299107104) rotate(0 0.2188949893602512 23.309448794098913)"><path d="M1.18 0.28 C1.19 3.61, -0.75 13.33, -0.9 21.16 C-1.05 28.99, 0.14 43.02, 0.29 47.24 M0.34 -0.63 C0.81 2.84, 1.45 11.62, 1.34 19.25 C1.23 26.88, -0.15 40.45, -0.32 45.15" stroke="#aaa" stroke-width="1" fill="none"></path></g><g stroke-opacity="0.9" fill-opacity="0.9" transform="translate(60.266380346996186 75.30868299107104) rotate(0 0.2188949893602512 23.309448794098913)"><path d="M-3.65 31.69 C-2.59 35.71, -1.7 38.21, -0.59 45.26 M-4.23 32.21 C-2.91 35.55, -2.1 38.48, -0.36 45.73" stroke="#aaa" stroke-width="1" fill="none"></path></g><g stroke-opacity="0.9" fill-opacity="0.9" transform="translate(60.266380346996186 75.30868299107104) rotate(0 0.2188949893602512 23.309448794098913)"><path d="M5.22 32.28 C4.32 36.25, 3.25 38.62, -0.59 45.26 M4.65 32.8 C4.06 36.03, 2.98 38.84, -0.36 45.73" stroke="#aaa" stroke-width="1" fill="none"></path></g></g><mask></mask><g stroke-linecap="round"><g stroke-opacity="0.9" fill-opacity="0.9" transform="translate(79.3449307722434 74.7981251758329) rotate(0 0.11988551690626537 23.59555128482205)"><path d="M-0.53 0.43 C-0.8 4.08, -1.33 13.74, -1.11 21.6 C-0.88 29.46, 0.44 43.3, 0.8 47.59 M1.4 -0.4 C1.43 2.95, 1.18 12.24, 1.03 19.92 C0.87 27.59, 0.93 41.49, 0.46 45.67" stroke="#aaa" stroke-width="1" fill="none"></path></g><g stroke-opacity="0.9" fill-opacity="0.9" transform="translate(79.3449307722434 74.7981251758329) rotate(0 0.11988551690626537 23.59555128482205)"><path d="M-2.9 32.05 C-1.16 38.44, 0.14 43.02, 1.02 46.53 M-3.97 33.38 C-2.83 35.82, -2.16 38.65, -0.08 45.05" stroke="#aaa" stroke-width="1" fill="none"></path></g><g stroke-opacity="0.9" fill-opacity="0.9" transform="translate(79.3449307722434 74.7981251758329) rotate(0 0.11988551690626537 23.59555128482205)"><path d="M5.98 32.5 C4.65 38.7, 2.87 43.11, 1.02 46.53 M4.92 33.83 C4.05 36.14, 2.7 38.86, -0.08 45.05" stroke="#aaa" stroke-width="1" fill="none"></path></g></g><mask></mask><g stroke-linecap="round"><g stroke-opacity="0" fill-opacity="0" transform="translate(98.8406173429118 74.93693918909915) rotate(0 0.05277370305358886 23.565266651120382)"><path d="M-0.37 0.51 C-0.32 3.88, -0.28 12.13, -0.25 19.95 C-0.23 27.76, -0.27 42.94, -0.21 47.39 M1.64 -0.26 C1.55 3.26, -0.88 13.45, -1.34 21.06 C-1.79 28.67, -1.37 40.94, -1.08 45.38" stroke="#aaa" stroke-width="1" fill="none"></path></g><g stroke-opacity="0" fill-opacity="0" transform="translate(98.8406173429118 74.93693918909915) rotate(0 0.05277370305358886 23.565266651120382)"><path d="M-5.54 33.11 C-5.71 36.27, -2.85 39.72, -1.2 44.29 M-6 33.77 C-3.91 38.31, -1.76 42.61, -1.11 45.25" stroke="#aaa" stroke-width="1" fill="none"></path></g><g stroke-opacity="0" fill-opacity="0" transform="translate(98.8406173429118 74.93693918909915) rotate(0 0.05277370305358886 23.565266651120382)"><path d="M3.35 32.69 C0.89 35.93, 1.45 39.49, -1.2 44.29 M2.89 33.36 C1.67 38.06, 0.51 42.51, -1.11 45.25" stroke="#aaa" stroke-width="1" fill="none"></path></g></g><mask></mask><g stroke-linecap="round"><g stroke-opacity="0" fill-opacity="0" transform="translate(117.25565137074756 75.5253879737565) rotate(0 -0.02410930198038841 23.33916838275303)"><path d="M0.93 -1.1 C0.94 2.72, 0.1 13.67, -0.23 21.82 C-0.56 29.96, -1.28 43.62, -1.06 47.78 M-0.04 0.94 C-0.19 4.54, -1.52 12.75, -1.3 20.25 C-1.08 27.76, 1.35 41.37, 1.27 45.97" stroke="#aaa" stroke-width="1" fill="none"></path></g><g stroke-opacity="0" fill-opacity="0" transform="translate(117.25565137074756 75.5253879737565) rotate(0 -0.02410930198038841 23.33916838275303)"><path d="M-5.3 33.88 C-1.56 36.24, -0.11 41.86, 1.24 46.34 M-4.13 34.64 C-2.34 38.15, -0.53 42.88, 0.63 46.4" stroke="#aaa" stroke-width="1" fill="none"></path></g><g stroke-opacity="0" fill-opacity="0" transform="translate(117.25565137074756 75.5253879737565) rotate(0 -0.02410930198038841 23.33916838275303)"><path d="M3.57 33.19 C4.82 35.81, 3.8 41.63, 1.24 46.34 M4.74 33.95 C3.42 37.65, 2.13 42.61, 0.63 46.4" stroke="#aaa" stroke-width="1" fill="none"></path></g></g><mask></mask><g transform="translate(41.40893650044541 160.87488954110222) rotate(0 -0.4641872045899049 -6.034433659668238)" stroke="none"><path fill="#fff" d="M -1.61,0 Q -1.61,0 -1.50,-0.71 -1.40,-1.42 -1.65,-2.80 -1.91,-4.19 -2.11,-5.49 -2.31,-6.80 -2.12,-9.43 -1.93,-12.06 -1.89,-12.27 -1.86,-12.48 -1.76,-12.67 -1.66,-12.86 -1.50,-13.01 -1.35,-13.15 -1.16,-13.24 -0.96,-13.33 -0.75,-13.35 -0.54,-13.38 -0.33,-13.33 -0.13,-13.28 0.04,-13.17 0.23,-13.06 0.36,-12.90 0.50,-12.74 0.58,-12.54 0.66,-12.35 0.67,-12.13 0.68,-11.92 0.62,-11.72 0.57,-11.51 0.45,-11.34 0.33,-11.16 0.16,-11.03 -0.00,-10.90 -0.20,-10.84 -0.40,-10.77 -0.61,-10.77 -0.83,-10.77 -1.03,-10.84 -1.23,-10.90 -1.40,-11.03 -1.57,-11.16 -1.69,-11.34 -1.81,-11.51 -1.86,-11.72 -1.92,-11.92 -1.91,-12.13 -1.90,-12.35 -1.82,-12.54 -1.74,-12.74 -1.60,-12.90 -1.46,-13.07 -1.28,-13.17 -1.10,-13.28 -0.89,-13.33 -0.68,-13.38 -0.47,-13.35 -0.26,-13.33 -0.07,-13.24 0.11,-13.15 0.27,-13.00 0.42,-12.86 0.52,-12.67 0.62,-12.48 0.66,-12.27 0.69,-12.06 0.69,-12.06 0.69,-12.06 0.73,-10.11 0.77,-8.16 0.63,-7.03 0.50,-5.91 0.80,-4.79 1.09,-3.68 1.24,-2.55 1.40,-1.42 1.50,-0.71 1.61,0 1.59,0.19 1.56,0.38 1.49,0.56 1.42,0.75 1.31,0.91 1.20,1.07 1.06,1.19 0.91,1.32 0.74,1.41 0.57,1.50 0.38,1.55 0.19,1.60 -0.00,1.60 -0.19,1.60 -0.38,1.55 -0.57,1.50 -0.74,1.41 -0.91,1.32 -1.06,1.19 -1.20,1.07 -1.31,0.91 -1.42,0.74 -1.49,0.56 -1.56,0.38 -1.59,0.19 -1.61,-0.00 -1.61,-0.00 L -1.61,0 Z"></path></g></svg>