<svg version="1.1" xmlns="http://www.w3.org/2000/svg" viewBox="0 0 137 171.47888652591843" width="411" height="514.4366595777553">
  <!-- svg-source:excalidraw -->
  
  <defs>
    <style class="style-fonts">
      @font-face {
        font-family: "Virgil";
        src: url("https://excalidraw.com/Virgil.woff2");
      }
      @font-face {
        font-family: "Cascadia";
        src: url("https://excalidraw.com/Cascadia.woff2");
      }
    </style>
  </defs>
  <rect x="0" y="0" width="137" height="171.47888652591843" fill="#ffffff"></rect><g transform="translate(10 34.263918395695555) rotate(0 58.5 23.5)"><text x="0" y="32" font-family="Virgil, Segoe UI Emoji" font-size="36px" fill="#000000" text-anchor="start" style="white-space: pre;" direction="ltr">London</text></g><g transform="translate(10.214968130222928 114.47888652591843) rotate(0 13.5 23.5)"><text x="0" y="32" font-family="Virgil, Segoe UI Emoji" font-size="36px" fill="#a00" text-anchor="start" style="white-space: pre;" direction="ltr">O</text></g><g transform="translate(29.52683955258874 10) rotate(0 42.5 11)"><text x="0" y="15" font-family="Virgil, Segoe UI Emoji" font-size="16px" fill="#00a" text-anchor="start" style="white-space: pre;" direction="ltr">shift = +3</text></g><g stroke-linecap="round"><g transform="translate(22.960408810202182 71.48668091293823) rotate(0 -0.2792470993381073 23.79404117338393)"><path d="M-1.09 0.77 C-1.03 4.37, 0.1 14.33, 0.21 21.93 C0.33 29.53, -0.25 42.21, -0.4 46.35 M0.53 0.13 C0.41 3.85, -0.79 15.24, -1 23.13 C-1.21 31.01, -0.88 43.32, -0.74 47.45" stroke="#aaa" stroke-width="1" fill="none"></path></g><g transform="translate(22.960408810202182 71.48668091293823) rotate(0 -0.2792470993381073 23.79404117338393)"><path d="M-4.43 35.67 C-4.55 40.27, -3.04 43.23, -0.7 47.77 M-5.34 36.57 C-4.61 38.11, -2.9 41.01, -0.76 46.86" stroke="#aaa" stroke-width="1" fill="none"></path></g><g transform="translate(22.960408810202182 71.48668091293823) rotate(0 -0.2792470993381073 23.79404117338393)"><path d="M3.86 35.43 C1.37 40.02, 0.51 43.05, -0.7 47.77 M2.96 36.33 C1.85 37.98, 1.71 40.93, -0.76 46.86" stroke="#aaa" stroke-width="1" fill="none"></path></g></g><mask></mask><g transform="translate(41.40893650044541 160.87488954110222) rotate(0 -0.4641872045899049 -6.034433659668238)" stroke="none"><path fill="#fff" d="M -1.61,0 Q -1.61,0 -1.50,-0.71 -1.40,-1.42 -1.65,-2.80 -1.91,-4.19 -2.11,-5.49 -2.31,-6.80 -2.12,-9.43 -1.93,-12.06 -1.89,-12.27 -1.86,-12.48 -1.76,-12.67 -1.66,-12.86 -1.50,-13.01 -1.35,-13.15 -1.16,-13.24 -0.96,-13.33 -0.75,-13.35 -0.54,-13.38 -0.33,-13.33 -0.13,-13.28 0.04,-13.17 0.23,-13.06 0.36,-12.90 0.50,-12.74 0.58,-12.54 0.66,-12.35 0.67,-12.13 0.68,-11.92 0.62,-11.72 0.57,-11.51 0.45,-11.34 0.33,-11.16 0.16,-11.03 -0.00,-10.90 -0.20,-10.84 -0.40,-10.77 -0.61,-10.77 -0.83,-10.77 -1.03,-10.84 -1.23,-10.90 -1.40,-11.03 -1.57,-11.16 -1.69,-11.34 -1.81,-11.51 -1.86,-11.72 -1.92,-11.92 -1.91,-12.13 -1.90,-12.35 -1.82,-12.54 -1.74,-12.74 -1.60,-12.90 -1.46,-13.07 -1.28,-13.17 -1.10,-13.28 -0.89,-13.33 -0.68,-13.38 -0.47,-13.35 -0.26,-13.33 -0.07,-13.24 0.11,-13.15 0.27,-13.00 0.42,-12.86 0.52,-12.67 0.62,-12.48 0.66,-12.27 0.69,-12.06 0.69,-12.06 0.69,-12.06 0.73,-10.11 0.77,-8.16 0.63,-7.03 0.50,-5.91 0.80,-4.79 1.09,-3.68 1.24,-2.55 1.40,-1.42 1.50,-0.71 1.61,0 1.59,0.19 1.56,0.38 1.49,0.56 1.42,0.75 1.31,0.91 1.20,1.07 1.06,1.19 0.91,1.32 0.74,1.41 0.57,1.50 0.38,1.55 0.19,1.60 -0.00,1.60 -0.19,1.60 -0.38,1.55 -0.57,1.50 -0.74,1.41 -0.91,1.32 -1.06,1.19 -1.20,1.07 -1.31,0.91 -1.42,0.74 -1.49,0.56 -1.56,0.38 -1.59,0.19 -1.61,-0.00 -1.61,-0.00 L -1.61,0 Z"></path></g></svg>