<svg xmlns="http://www.w3.org/2000/svg" data-name="Layer 1" viewBox="0 0 2000 2000"><path d="M610.13 1336.34h1012v-.29c136.31-6.16 244.94-118.58 244.94-256.4 0-141.77-114.93-256.7-256.7-256.7a255.5 255.5 0 0 0-118.5 29c-42.1-97.31-127.47-171.53-231.86-198.36m-866.79 0C243.55 692.05 133 827.87 133 989.53s110.76 297.67 260.58 336" style="fill:none;stroke-linecap:round;stroke-linejoin:round;stroke:#00283d;stroke-width:67.96px"/><path d="M661.56 916.05a322.34 322.34 0 0 0 164.19 44.64c178.89 0 323.91-145 323.91-323.92s-145-323.91-323.91-323.91-323.92 145-323.92 323.91v483.15" style="fill:none;stroke-linecap:round;stroke-linejoin:round;stroke-width:67.96px;stroke:#21fa90"/><path d="M501.83 1630.69v56.45" style="fill:none;stroke-linecap:round;stroke-linejoin:round;stroke-width:67.96px;stroke:#21fa90;opacity:.2"/><path d="M502.33 1453.1v89.15" style="fill:none;stroke-linecap:round;stroke-linejoin:round;stroke-width:67.96px;stroke:#21fa90;opacity:.4"/><path d="M501.83 1211.73v149.07" style="fill:none;stroke-linecap:round;stroke-linejoin:round;stroke-width:67.96px;stroke:#21fa90;opacity:.7"/><path d="m793.55 866.39-135 47.43 59.44 126" style="fill:none;stroke-linecap:round;stroke-linejoin:round;stroke:#21fa90;stroke-width:70.05px"/></svg>